<svg xmlns="http://www.w3.org/2000/svg" viewBox="0 0 461.68 485.11"><defs><style>.cls-1{fill:#fff;}</style></defs><title>icons_give-canvas-onesjsu-master</title><g id="Layer_2" data-name="Layer 2"><path class="cls-1" d="M395.48,282.59l-40.63-19.78a119.25,119.25,0,0,1-2.67,30.8Z"/><path class="cls-1" d="M347.47,217.76a150.06,150.06,0,0,1,7,33l35.39-25.35Z"/><path class="cls-1" d="M372.42,174.71l-46.78,5a149.81,149.81,0,0,1,17.29,29.9Z"/><path class="cls-1" d="M321.18,174l18.18-41.81-43.16,18A147.08,147.08,0,0,1,321.18,174Z"/><path class="cls-1" d="M292.22,147.27l5.94-45.09L261.75,131A147.73,147.73,0,0,1,292.22,147.27Z"/><path class="cls-1" d="M221.28,121.34A162.22,162.22,0,0,1,238.69,124a152.25,152.25,0,0,1,15.93,4.34l-7.21-44.48Z"/><path class="cls-1" d="M213,120.85,193.51,81l-13.88,42.47A145.45,145.45,0,0,1,213,120.85Z"/><path class="cls-1" d="M107.18,160.3a158.52,158.52,0,0,1,27.64-20.24L95.67,116.14Z"/><path class="cls-1" d="M141.46,136.5A145.31,145.31,0,0,1,172.34,125l-29.28-32.6Z"/><path class="cls-1" d="M382,335.14l-31.58-29.45c-3,10.12-5.53,15.32-10.73,24.17Z"/><path class="cls-1" d="M117.66,42.05S97.31,48.85,67,70.76l57.17,42.07Z"/><path class="cls-1" d="M184.71,25.63s-25.11.9-60.45,13.43l46.61,56.28Z"/><path class="cls-1" d="M254.34,30.54s-24.25-6.67-61.73-5.36L219.93,92.8Z"/><path class="cls-1" d="M318.8,55.32S297.67,41.76,261.42,32l5.94,72.54Z"/><path class="cls-1" d="M373,98.24s-16.18-19.16-47.88-39.19l-16,71Z"/><path class="cls-1" d="M410.39,153.91s-9.79-23-34.16-51.45l-36.37,63.12Z"/><path class="cls-1" d="M430.66,217.64s-2.42-24.91-17.2-59.19L359.8,207.93Z"/><path class="cls-1" d="M431.52,224.19l-63.16,32.23,63.69,27.4S436.31,260,431.52,224.19Z"/><path class="cls-1" d="M413.29,347.47s11.35-21.38,17.82-56.93L361,302.09Z"/><path class="cls-1" d="M61.55,75.43a208.74,208.74,0,0,0-33.67,33.63l60.74,38.5Z"/><path class="cls-1" d="M320.36,279.73c-3.15-48.62-29.16-93.51-80.77-109.77,0,0-36.25-12.33-66.47-1.51,0,0,22.28-21,72.21-7.42l2.33.7h0c52.22,16.42,73.44,55.46,82.08,87,2.62,10.24,8.19,34.57,2.42,78.76,0,0,13.59-25.47,12.61-59.67l0,0c-.9-72.87-60.54-133.48-135.36-134.75-41.78-.7-75.9,22.15-91.95,36.33l16.26,15.19c-8.89,8.07-20.2,19.37-26.38,32A850.13,850.13,0,0,0,59.87,335.1l20.85-8s.82-3.08,2.62-8.16c14.5-41.49,19.13-43.25,19.13-43.25,6.1-7.33,20.15-7.37,20.15-7.37l49.88-1.23s-8.93,25.15-66,26l-42.35,167S178,412.72,217.07,407c0,0,.08,0,.12,0l.08,0h-.08c21.95-21.21,12.53-65,12.53-65s-13.8,41.94-36.7,50.38v0l-98.5,33.75,30-118.78s61.89-1.06,75-53.61c0,0-81.47-3.69-87.53,2.25,0,0,21.09-79,101.45-72.53,0,0,80.81,5.12,88.67,94.36.29,10.08-.45,32-6.22,44.16-8.27-4.88-18.27-10.53-24.49-13.27l59.51,80.8A293,293,0,0,0,276.37,383a.36.36,0,0,1-.2,0c-25.64-3.52-36.58-20.23-36.58-20.23l18.6,39.19.24-.12,0,.08c52.72-4,117.22,19.91,117.22,19.91l-63-87.49A165.92,165.92,0,0,0,320.36,279.73Z"/><path class="cls-1" d="M387.49,390.89s11.84-14.5,23.67-38.67l-72.82-13.31Z"/></g></svg>