<?xml version="1.0" encoding="UTF-8"?>
<svg width="205px" height="60px" viewBox="0 0 205 60" version="1.1" aria-hidden="true" xmlns="http://www.w3.org/2000/svg" xmlns:xlink="http://www.w3.org/1999/xlink">
    <defs>
        <polygon id="path-1" points="0 102.3594 21.1406204 102.463097 21.6489584 0.17801903 0.508260387 0.0743223669"></polygon>
        <polyline id="path-3" points="0 102.3594 21.1406204 102.463097 21.6489584 0.17801903 0.508260387 0.0743223669"></polyline>
        <polyline id="path-5" points="0 102.3594 21.1406204 102.463097 21.6489584 0.17801903 0.508260387 0.0743223669"></polyline>
        <polygon id="path-7" points="0 102.3594 21.1406204 102.463097 21.6489584 0.17801903 0.508260387 0.0743223669"></polygon>
        <polygon id="path-9" points="0 102.3594 21.1406204 102.463097 21.2861469 73.1810399 21.6489584 0.17801903 0.508260387 0.0743223669"></polygon>
    </defs>
    <g id="GlobalNavigation" stroke="none" stroke-width="1" fill="none" fill-rule="evenodd">
        <g id="06_GlobalNavigationExpanded_Desktop" transform="translate(-1179.000000, -321.000000)">
            <g id="Page-1" transform="translate(1281.500000, 351.500000) rotate(90.000000) translate(-1281.500000, -351.500000) translate(1251.000000, 249.000000)">
                <g id="Group-16" transform="translate(0.000000, 101.847134)">
                    <g id="Group-3">
                        <mask id="mask-2" fill="white">
                            <use xlink:href="#path-1"></use>
                        </mask>
                        <g id="Clip-2"></g>
                        <path d="M0.117843757,78.707055 L0.133212657,78.7071321 C0.123354827,78.8072052 0.116834688,78.9105935 0.116291343,79.0127482 C0.11155648,79.9854923 0.582558928,80.8458276 1.30753633,81.3912181 L13.3066885,84.9830546 L13.306378,85.0414178 L3.09529645,88.5237753 L3.0838862,90.8346304 L13.2598056,94.4196052 L13.2594951,94.4765806 L1.12031518,97.9806797 C0.449982761,98.5211359 0.0153844241,99.3412262 0.0107271817,100.266941 C0.0101838367,100.370329 0.0157725276,100.471867 0.0245436675,100.572711 L0.00925238824,100.572634 L0.000326006968,102.359686 L20.8204505,95.7662741 L20.8331027,93.2107103 L10.0773566,89.7144751 L20.8673334,86.323787 L20.8799856,83.7689171 L0.126459655,76.9717357 L0.117843757,78.707055 Z" id="Fill-1" fill="#FEFEFE" mask="url(#mask-2)"></path>
                    </g>
                    <g id="Group-6">
                        <mask id="mask-4" fill="white">
                            <use xlink:href="#path-3"></use>
                        </mask>
                        <g id="Clip-5"></g>
                        <path d="M15.9473139,70.8182986 L12.182011,70.7997951 L12.2124384,64.6867804 C12.2566045,63.1830632 11.6095583,62.4133178 10.2495659,62.3005236 L8.77880878,62.2933535 L8.73666074,70.7829878 L4.00808491,70.7597813 L4.04448902,63.4212956 C4.07771068,61.7232146 3.22559056,60.9723582 1.44458345,61.0610979 C1.41120654,61.0622544 1.40057251,61.0549301 1.3979334,61.0449844 L0.435902365,61.0476058 L0.36837235,74.6283993 L17.5442047,74.7125902 C17.5442047,74.7125902 21.0150922,74.7104314 21.1741371,70.7942441 L21.2234262,60.8756004 L17.6044384,60.8578679 L17.5629889,69.171796 C17.5555373,70.690239 16.3004881,70.8140582 15.9473139,70.8182986" id="Fill-4" fill="#FEFEFE" mask="url(#mask-4)"></path>
                    </g>
                    <g id="Group-9">
                        <mask id="mask-6" fill="white">
                            <use xlink:href="#path-5"></use>
                        </mask>
                        <g id="Clip-8"></g>
                        <path d="M16.3727918,10.1205785 L12.6075666,10.102075 L12.6379163,3.9890603 C12.6820824,2.48534303 12.0350362,1.71559769 10.6750438,1.60280348 L9.20428669,1.59563337 L9.16213864,10.0852676 L4.43356281,10.0620612 L4.46996692,2.72357552 C4.50318859,1.02549447 3.65106847,0.274638107 1.87006135,0.36337778 C1.83668445,0.364534248 1.82605041,0.357209948 1.82348893,0.347264321 L0.861380268,0.349808551 L0.793927874,13.9306791 L17.9696826,14.01487 C17.9696826,14.01487 21.4405701,14.0127113 21.599615,10.0964468 L21.6489041,0.177880254 L18.0299163,0.160147739 L17.9885444,8.47407591 C17.9810152,9.99251887 16.725966,10.1163381 16.3727918,10.1205785" id="Fill-7" fill="#FEFEFE" mask="url(#mask-6)"></path>
                    </g>
                    <g id="Group-12">
                        <mask id="mask-8" fill="white">
                            <use xlink:href="#path-7"></use>
                        </mask>
                        <g id="Clip-11"></g>
                        <path d="M12.7708573,21.5092322 C12.6517871,18.9954555 11.4274757,16.555153 6.83318367,16.5326404 C3.24353647,16.5150621 0.644639969,19.0440271 0.623216654,23.3507924 L0.581146231,31.8251613 L21.0321843,31.9254657 L21.0511238,28.1013332 L13.5260291,28.0644804 L10.1373419,28.0478272 L8.02442866,28.0374961 L3.98877288,28.017682 L4.00670326,24.422376 C4.01989878,21.7693605 5.23318805,20.5193724 7.10105273,20.528547 C9.0243386,20.537953 10.1676916,21.9420598 10.1580666,23.8823053 L10.1501493,25.4637372 C10.1501493,25.4637372 10.6060157,27.1006026 12.347902,26.0076629 L21.0905551,20.1753616 L21.1125217,15.7531808 L12.7708573,21.5092322 Z" id="Fill-10" fill="#FEFEFE" mask="url(#mask-8)"></path>
                    </g>
                    <g id="Group-15">
                        <mask id="mask-10" fill="white">
                            <use xlink:href="#path-9"></use>
                        </mask>
                        <g id="Clip-14"></g>
                        <path d="M4.10129185,38.8355261 C3.63525713,38.9844021 3.22930083,39.1302713 2.87674758,39.275755 L2.85400472,39.2830022 L2.85532427,39.2843129 C1.1273321,39.9992416 0.709887935,40.7213405 0.655242958,41.8914552 L0.64127123,44.7142402 L20.932954,52.0251249 L20.9516606,48.2521083 L16.7048765,46.7936475 L16.7478007,38.1588379 L21.0089447,36.725511 L21.0276513,32.9511837 L21.0284275,32.7979902 L4.10129185,38.8355261 Z M13.3587254,45.6168253 L4.45081789,42.5241205 L4.4519822,42.2979923 L13.3901618,39.2868571 L13.3587254,45.6168253 Z" id="Fill-13" fill="#FEFEFE" mask="url(#mask-10)"></path>
                    </g>
                </g>
                <g id="Group-33" transform="translate(31.337580, 0.000000)" fill="#FEFEFE">
                    <path d="M12.0291777,175.886318 L11.333682,179.168115 C10.6737345,182.187976 10.1641835,184.71564 7.92050265,184.733841 C6.02331966,184.749254 4.90233866,182.575614 4.87843148,179.673942 C4.87647828,179.448562 4.89780724,179.23511 4.90952644,179.016313 L4.89351019,179.043266 C4.89351019,179.043266 4.97070069,176.59429 5.79268571,174.357916 C6.40114682,172.657187 6.12512048,171.352771 4.77373992,170.442034 L4.30997193,170.17212 C4.17410728,170.100789 4.047618,170.024035 3.89269011,169.958203 L3.41173395,169.723296 L3.08414311,169.548878 C0.807179758,172.25584 0.295284895,177.460029 0.295284895,177.460029 C0.202546922,178.185195 0.158404584,178.901996 0.164811083,179.674639 C0.206140811,184.685125 2.98687371,190.047622 8.68803243,190.001384 C13.6651787,189.960955 15.2296144,186.18247 16.1792606,181.880344 L16.842177,178.899363 C17.6447862,175.313496 18.2388718,173.351296 20.36622,173.334024 C22.9860872,173.312726 23.8491676,176.545652 23.8694028,178.99393 C23.8766687,179.872602 23.7822119,180.726568 23.5981422,181.545062 C23.4432925,182.292301 23.08906,183.640787 22.3777043,185.016302 C21.695334,186.620993 21.8968262,187.911313 23.1811729,188.903063 L25.0733557,189.911309 C27.7365059,187.108542 28.3680929,182.470979 28.3680929,182.470979 L28.3427013,182.503353 C28.5002074,181.587117 28.5954455,180.666079 28.587789,179.743105 C28.5418497,174.171881 26.2119155,168.014125 19.6014246,168.067798 C14.4698974,168.109467 12.869054,171.886945 12.0291777,175.886318" id="Fill-17"></path>
                    <path d="M5.38295106,126.502455 C4.76206759,126.702044 4.22103097,126.895592 3.75163776,127.088521 L3.72062093,127.098202 L3.72194911,127.099519 C1.42240676,128.047896 0.875198023,128.980706 0.822695985,130.483705 L0.852619021,134.107135 L28.1398497,143.142475 L28.0998482,138.299669 L22.3902516,136.500036 L22.2986856,125.416603 L27.9775778,123.504435 L27.9376544,118.660236 L27.9360137,118.463047 L5.38295106,126.502455 Z M17.8906239,135.04738 L5.91461232,131.229938 L5.91219035,130.940119 L17.8234338,126.923319 L17.8906239,135.04738 Z" id="Fill-19"></path>
                    <path d="M17.0019019,102.039377 C16.8044724,98.7769427 15.1693308,95.6294442 9.19073944,95.6780055 C4.51930817,95.7158786 1.18253807,99.0432939 1.22863361,104.635972 L1.31957464,115.641568 L27.9309197,115.425482 L27.8899025,110.460614 L18.0965538,110.540156 L13.6877108,110.575938 L10.9393229,110.598243 L5.6874785,110.640918 L5.64880513,105.971136 C5.62036652,102.524913 7.17800509,100.882194 9.60708372,100.862444 C12.1106184,100.842152 13.6222395,102.645038 13.6430216,105.165732 L13.6600535,107.219556 C13.6600535,107.219556 14.2810932,109.33689 16.5291492,107.888493 L27.8048211,100.166089 L27.7573974,94.4231574 L17.0019019,102.039377 Z" id="Fill-21"></path>
                    <path d="M3.31133943,73.2605035 L2.76327128,73.2676289 C2.75928676,73.2703397 2.75373966,73.2677063 2.75108331,73.2704171 C2.75108331,73.2704171 2.74975514,73.2677838 2.74702065,73.2704946 L1.46150202,73.2889277 L1.62549276,93.1295765 L6.2589538,93.0920132 L6.19926399,85.8680786 L28.177148,85.6896333 L28.1360527,80.7261601 L6.15816864,80.9045279 L6.12027655,76.3112667 C6.16035623,74.2811421 5.23344526,73.3052697 3.31133943,73.2605035" id="Fill-23"></path>
                    <path d="M5.32381595,57.4049305 C4.70301061,57.6045197 4.16189587,57.7980677 3.69250265,57.9910736 L3.66148583,58.0006774 L3.662814,58.0019941 C1.36327165,58.9503717 0.816141043,59.8831819 0.763560878,61.3861804 L0.793483914,65.0096103 L28.0807146,74.04495 L28.0407912,69.2021442 L22.3311165,67.4025115 L22.2395505,56.3190788 L27.9185208,54.4068335 L27.8785193,49.562711 L27.8768786,49.3655228 L5.32381595,57.4049305 Z M17.8314888,65.9498557 L5.85555534,62.1323355 L5.85305524,61.8425944 L17.7642987,57.8257949 L17.8314888,65.9498557 Z" id="Fill-25"></path>
                    <path d="M27.5887815,25.8983771 L0.538981851,26.1179484 L0.577030203,30.7139204 L19.1663453,30.5630474 L19.1669703,30.6381741 L3.88442416,40.5262405 L3.88036151,40.5275572 L2.9461065,41.1281834 C-0.147372906,43.4513795 0.858759885,47.1272432 0.858759885,47.1272432 L27.7623819,46.9088336 L27.7243336,42.3128616 L9.13775301,42.4637346 L9.13712798,42.3859746 L24.7136699,32.2110327 C25.9955165,31.2601766 28.1852108,29.1240228 27.5887815,25.8983771" id="Fill-27"></path>
                    <path d="M11.910384,7.8883256 L11.2148102,11.1701227 C10.5549408,14.1900607 10.0453898,16.7176478 7.80170898,16.7358486 C5.90444786,16.7512612 4.78354499,14.5776215 4.75963781,11.6760274 C4.75768461,11.4506473 4.77901356,11.2371171 4.79065464,11.0183978 L4.77463839,11.0453504 C4.77463839,11.0453504 4.85182889,8.59629783 5.67381391,6.35992345 C6.28227502,4.65927207 6.00632681,3.35477843 4.65494625,2.44404159 L4.19117825,2.17412766 C4.05523548,2.10279603 3.9287462,2.02604289 3.77389644,1.96021022 L3.29294027,1.72530378 L2.96534944,1.55088594 C0.688386086,4.25792516 0.176491223,9.46203611 0.176491223,9.46203611 C0.0837532498,10.1872797 0.039610912,10.9040038 0.0460174106,11.6767244 C0.0873471393,16.6872099 2.86808004,22.0497065 8.56923876,22.0033913 C13.546385,21.9630397 15.1108207,18.1844771 16.0604669,13.8823511 L16.7233833,10.9013705 C17.5259926,7.31550395 18.1200781,5.35330326 20.2474263,5.33603187 C22.8672936,5.31481052 23.7302958,8.54773656 23.750531,10.9959372 C23.757875,11.8746097 23.6634182,12.7285755 23.4792704,13.5471466 C23.3244988,14.2943087 22.9701882,15.642794 22.2588325,17.0183095 C21.5765404,18.6230775 21.7780325,19.9133203 23.0623793,20.9050701 L24.9545621,21.9133167 C27.6177123,19.1106265 28.2492993,14.4729863 28.2492993,14.4729863 L28.2239077,14.5054379 C28.3813356,13.5892021 28.4766518,12.6680869 28.4689953,11.745113 C28.423056,6.17396553 26.0931219,0.0162103258 19.482631,0.069883311 C14.3511037,0.111474066 12.7502604,3.88895243 11.910384,7.8883256" id="Fill-29"></path>
                    <path d="M1.1739518,162.738675 L1.08597964,152.089893 C1.03410263,145.807675 4.88159567,142.690847 10.1172676,142.648327 C15.4706003,142.604877 18.9521416,146.303511 18.9958933,151.606449 L19.0450359,157.54928 L28.1509361,157.475315 L28.1925783,162.519336 L1.1739518,162.738675 Z M14.7958866,157.583745 L14.7545569,152.581314 C14.7284621,149.420727 12.8184661,147.894803 10.1607068,147.916334 C6.40415475,147.94685 5.32044082,149.94793 5.34442613,152.848208 L5.3841933,157.660111 L14.7958866,157.583745 Z" id="Fill-31"></path>
                </g>
            </g>
        </g>
    </g>
</svg>