<?xml version="1.0" encoding="UTF-8"?>
<svg width="211px" height="50px" viewBox="0 0 211 50" version="1.1" xmlns="http://www.w3.org/2000/svg" xmlns:xlink="http://www.w3.org/1999/xlink">
    <defs></defs>
    <g id="Calendar" stroke="none" stroke-width="1" fill="none" fill-rule="evenodd" opacity="0.100000001">
        <g id="01_Calendar_Desktop_ActiveStates" transform="translate(-617.000000, -1762.000000)" fill="#1A1919">
            <g id="Events-Feed">
                <g id="Large-circle-pattern" transform="translate(2.000000, 0.000000)">
                    <g id="Group-Copy-4" opacity="0.350000024">
                        <g transform="translate(-30.000000, -74.000000)">
                            <g transform="translate(0.000000, 1619.000000)">
                                <g id="type-pattern-copy-38" transform="translate(750.500000, 242.000000) rotate(-180.000000) translate(-750.500000, -242.000000) translate(645.000000, 217.000000)">
                                    <path d="M78.2812,8.0161 L78.0742,6.2101 L78.2602,6.2031 C78.3362,6.3301 78.6182,6.7801 79.1632,7.1061 C79.5812,7.3521 80.0002,7.5071 80.5062,7.5791 C81.4062,7.7091 82.2952,7.2861 82.4112,6.4731 C82.6592,4.7431 78.5832,4.4691 78.9312,2.0331 C79.1262,0.6611 80.4992,0.1991 81.8812,0.3951 C82.3242,0.4591 82.7582,0.5971 83.2052,0.7701 C83.3002,0.8051 83.4352,0.8241 83.5152,0.7151 L83.6532,0.7371 L83.8502,2.3701 L83.6392,2.3401 C83.6392,2.3401 83.6222,2.3051 83.5882,2.2461 C83.3852,1.9241 83.0212,1.6151 82.8202,1.5011 C82.5522,1.3441 82.1492,1.2321 81.8942,1.1951 C81.1862,1.0961 80.3072,1.2821 80.1952,2.0841 C79.9882,3.5381 83.9512,4.0771 83.7232,6.3371 C83.6002,7.5811 82.3732,8.6981 80.2612,8.3951 C79.7132,8.3191 79.1772,8.1551 78.6772,7.9541 C78.4832,7.8711 78.3962,8.0311 78.3962,8.0311 L78.2812,8.0161 Z" id="Fill-55"></path>
                                    <path d="M82.1396,8.4575 L82.3576,6.6535 L82.5366,6.6915 C82.5826,6.8355 82.7516,7.3355 83.2056,7.7795 C83.5586,8.1165 83.9296,8.3645 84.4046,8.5515 C85.2476,8.8865 86.2106,8.6795 86.5126,7.9175 C87.1566,6.2905 83.2526,5.0805 84.1576,2.7895 C84.6676,1.5005 86.1066,1.3695 87.4066,1.8825 C87.8226,2.0475 88.2116,2.2805 88.6096,2.5515 C88.6876,2.6075 88.8206,2.6595 88.9226,2.5735 L89.0486,2.6235 L88.8656,4.2565 L88.6636,4.1795 C88.6636,4.1795 88.6576,4.1435 88.6366,4.0775 C88.5156,3.7205 88.2306,3.3335 88.0636,3.1745 C87.8406,2.9595 87.4746,2.7575 87.2356,2.6645 C86.5686,2.3985 85.6736,2.3815 85.3746,3.1335 C84.8336,4.5025 88.5646,5.9405 87.8226,8.0905 C87.4106,9.2705 85.9596,10.0715 83.9746,9.2885 C83.4616,9.0855 82.9746,8.8015 82.5366,8.4905 C82.3686,8.3685 82.2456,8.5015 82.2456,8.5015 L82.1396,8.4575 Z" id="Fill-57"></path>
                                    <path d="M85.793,9.7861 L86.42,8.0801 L86.589,8.1551 C86.601,8.3101 86.647,8.8361 86.988,9.3751 C87.254,9.7771 87.557,10.1071 87.977,10.3981 C88.722,10.9151 89.707,10.9391 90.174,10.2661 C91.177,8.8311 87.655,6.7571 89.064,4.7361 C89.858,3.5991 91.286,3.8021 92.434,4.6021 C92.8,4.8551 93.123,5.1741 93.451,5.5301 C93.516,5.6021 93.629,5.6811 93.748,5.6211 L93.862,5.7011 L93.306,7.2491 L93.13,7.1261 C93.13,7.1261 93.13,7.0901 93.123,7.0201 C93.088,6.6441 92.902,6.2001 92.776,6.0091 C92.607,5.7491 92.297,5.4681 92.086,5.3211 C91.501,4.9111 90.631,4.6851 90.169,5.3501 C89.327,6.5571 92.627,8.8161 91.406,10.7331 C90.737,11.7881 89.143,12.2321 87.393,11.0161 C86.936,10.7001 86.528,10.3121 86.177,9.9091 C86.037,9.7481 85.889,9.8531 85.889,9.8531 L85.793,9.7861 Z" id="Fill-59"></path>
                                    <path d="M89.0449,11.9219 L90.0499,10.4029 L90.1939,10.5169 C90.1699,10.6659 90.0989,11.1929 90.3069,11.7939 C90.4699,12.2469 90.6909,12.6399 91.0329,13.0199 C91.6379,13.6939 92.5929,13.9409 93.2029,13.3929 C94.5059,12.2249 91.5559,9.3979 93.3889,7.7529 C94.4229,6.8269 95.7679,7.3549 96.7009,8.3949 C96.9999,8.7289 97.2449,9.1109 97.4789,9.5319 C97.5249,9.6179 97.6179,9.7199 97.7479,9.6909 L97.8429,9.7939 L96.9409,11.1719 L96.8009,11.0129 C96.8009,11.0129 96.8109,10.9759 96.8219,10.9089 C96.8709,10.5329 96.7909,10.0609 96.7139,9.8449 C96.6069,9.5529 96.3699,9.2069 96.1989,9.0149 C95.7219,8.4839 94.9289,8.0609 94.3249,8.6049 C93.2299,9.5909 95.9259,12.5449 94.2959,14.1329 C93.4049,15.0069 91.7439,15.0749 90.3209,13.4849 C89.9499,13.0729 89.6449,12.6029 89.3899,12.1299 C89.2929,11.9439 89.1229,12.0059 89.1229,12.0059 L89.0449,11.9219 Z" id="Fill-61"></path>
                                    <path d="M91.7197,14.7388 L93.0427,13.4938 L93.1597,13.6388 C93.1057,13.7798 92.9117,14.2738 92.9787,14.9048 C93.0317,15.3848 93.1567,15.8148 93.4027,16.2648 C93.8367,17.0608 94.7077,17.5208 95.4297,17.1258 C96.9627,16.2868 94.7387,12.8598 96.9027,11.6808 C98.1187,11.0168 99.3087,11.8388 99.9767,13.0668 C100.1937,13.4578 100.3417,13.8878 100.4717,14.3498 C100.4997,14.4438 100.5677,14.5658 100.7007,14.5658 L100.7657,14.6858 L99.5737,15.8208 L99.4747,15.6338 C99.4747,15.6338 99.4907,15.5998 99.5167,15.5358 C99.6527,15.1828 99.6827,14.7048 99.6567,14.4798 C99.6197,14.1708 99.4687,13.7798 99.3457,13.5538 C99.0037,12.9268 98.3287,12.3368 97.6167,12.7248 C96.3257,13.4268 98.2697,16.9238 96.3217,18.0958 C95.2517,18.7398 93.6227,18.4268 92.6007,16.5558 C92.3377,16.0648 92.1447,15.5388 92.0067,15.0198 C91.9567,14.8178 91.7777,14.8428 91.7777,14.8428 L91.7197,14.7388 Z" id="Fill-63"></path>
                                    <path d="M93.6816,18.1118 L95.2596,17.2088 L95.3396,17.3748 C95.2516,17.4988 94.9496,17.9348 94.8666,18.5648 C94.8086,19.0438 94.8286,19.4908 94.9656,19.9868 C95.2026,20.8618 95.9436,21.5098 96.7346,21.2978 C98.4216,20.8368 97.0566,16.9848 99.4346,16.3408 C100.7716,15.9768 101.7396,17.0528 102.1066,18.4018 C102.2216,18.8338 102.2686,19.2858 102.2856,19.7668 C102.2916,19.8628 102.3306,19.9978 102.4606,20.0288 L102.4956,20.1618 L101.0726,20.9908 L101.0176,20.7858 C101.0176,20.7858 101.0426,20.7578 101.0826,20.7028 C101.2966,20.3898 101.4376,19.9318 101.4646,19.7048 C101.4996,19.3938 101.4436,18.9758 101.3756,18.7318 C101.1906,18.0408 100.6716,17.3098 99.8876,17.5208 C98.4666,17.9088 99.5456,21.7598 97.3766,22.4458 C96.1876,22.8248 94.6756,22.1428 94.1176,20.0838 C93.9726,19.5478 93.9086,18.9898 93.8966,18.4518 C93.8946,18.2428 93.7136,18.2248 93.7136,18.2248 L93.6816,18.1118 Z" id="Fill-65"></path>
                                    <path d="M94.7979,21.8228 L96.5399,21.3038 L96.5769,21.4848 C96.4629,21.5858 96.0709,21.9378 95.8469,22.5308 C95.6819,22.9858 95.6009,23.4258 95.6159,23.9378 C95.6489,24.8438 96.2199,25.6438 97.0409,25.6158 C98.7859,25.5548 98.3389,21.4968 100.7989,21.4088 C102.1879,21.3628 102.8789,22.6318 102.9269,24.0268 C102.9429,24.4748 102.8829,24.9218 102.7939,25.3948 C102.7769,25.4938 102.7799,25.6318 102.8999,25.6888 L102.9049,25.8308 L101.3339,26.3098 L101.3239,26.0988 C101.3239,26.0988 101.3549,26.0758 101.4079,26.0298 C101.6869,25.7768 101.9279,25.3608 102.0059,25.1478 C102.1129,24.8558 102.1519,24.4348 102.1439,24.1808 C102.1199,23.4668 101.7809,22.6378 100.9709,22.6638 C99.5019,22.7178 99.6699,26.7068 97.4039,26.8848 C96.1609,26.9808 94.8449,25.9698 94.7719,23.8408 C94.7519,23.2838 94.8189,22.7288 94.9289,22.2008 C94.9749,21.9978 94.8039,21.9388 94.8039,21.9388 L94.7979,21.8228 Z" id="Fill-67"></path>
                                    <path d="M95.0371,25.7192 L96.8531,25.6162 L96.8501,25.8022 C96.7161,25.8712 96.2521,26.1272 95.8951,26.6542 C95.6271,27.0572 95.4481,27.4672 95.3481,27.9692 C95.1691,28.8582 95.5401,29.7712 96.3431,29.9302 C98.0581,30.2742 98.5601,26.2222 100.9741,26.7072 C102.3341,26.9822 102.7171,28.3762 102.4431,29.7462 C102.3531,30.1832 102.1921,30.6082 101.9951,31.0472 C101.9551,31.1362 101.9261,31.2742 102.0291,31.3612 L102.0011,31.4972 L100.3601,31.6002 L100.4021,31.3902 C100.4021,31.3902 100.4381,31.3762 100.5001,31.3452 C100.8301,31.1622 101.1601,30.8142 101.2871,30.6222 C101.4571,30.3632 101.5921,29.9682 101.6421,29.7172 C101.7851,29.0142 101.6471,28.1272 100.8521,27.9692 C99.4091,27.6762 98.6511,31.6062 96.4061,31.2522 C95.1721,31.0542 94.1251,29.7692 94.5451,27.6762 C94.6551,27.1322 94.8491,26.6072 95.0771,26.1162 C95.1711,25.9322 95.0161,25.8342 95.0161,25.8342 L95.0371,25.7192 Z" id="Fill-69"></path>
                                    <path d="M94.376,29.5479 L96.168,29.8719 L96.121,30.0479 C95.974,30.0839 95.463,30.2269 94.993,30.6539 C94.643,30.9859 94.372,31.3439 94.156,31.8069 C93.777,32.6309 93.928,33.6019 94.673,33.9499 C96.26,34.6819 97.685,30.8519 99.923,31.8869 C101.183,32.4669 101.234,33.9109 100.647,35.1769 C100.458,35.5859 100.203,35.9619 99.911,36.3419 C99.851,36.4229 99.794,36.5469 99.874,36.6519 L99.814,36.7809 L98.192,36.5019 L98.283,36.3059 C98.283,36.3059 98.32,36.2999 98.385,36.2849 C98.752,36.1829 99.154,35.9219 99.319,35.7629 C99.546,35.5529 99.77,35.1959 99.876,34.9649 C100.176,34.3139 100.248,33.4229 99.515,33.0819 C98.177,32.4659 96.529,36.1079 94.428,35.2439 C93.271,34.7719 92.551,33.2759 93.446,31.3379 C93.678,30.8329 93.989,30.3689 94.323,29.9459 C94.456,29.7829 94.328,29.6559 94.328,29.6559 L94.376,29.5479 Z" id="Fill-71"></path>
                                    <path d="M92.8389,33.1338 L94.5039,33.8618 L94.4189,34.0218 C94.2679,34.0288 93.7389,34.0478 93.1859,34.3558 C92.7619,34.5968 92.4179,34.8798 92.0999,35.2818 C91.5429,35.9938 91.4639,36.9758 92.1099,37.4848 C93.4859,38.5618 95.7559,35.1708 97.6949,36.6888 C98.7829,37.5448 98.4979,38.9598 97.6369,40.0608 C97.3599,40.4128 97.0249,40.7188 96.6519,41.0218 C96.5769,41.0838 96.4899,41.1928 96.5419,41.3158 L96.4569,41.4248 L94.9429,40.7808 L95.0759,40.6108 C95.0759,40.6108 95.1129,40.6128 95.1829,40.6128 C95.5609,40.5978 96.0119,40.4388 96.2089,40.3228 C96.4809,40.1728 96.7789,39.8758 96.9369,39.6728 C97.3769,39.1118 97.6549,38.2588 97.0179,37.7588 C95.8599,36.8488 93.4159,40.0158 91.5709,38.6888 C90.5569,37.9598 90.1999,36.3398 91.5189,34.6638 C91.8609,34.2258 92.2719,33.8428 92.6929,33.5098 C92.8609,33.3828 92.7659,33.2268 92.7659,33.2268 L92.8389,33.1338 Z" id="Fill-73"></path>
                                    <path d="M90.5225,36.2656 L91.9805,37.3536 L91.8575,37.4896 C91.7105,37.4586 91.1905,37.3546 90.5815,37.5276 C90.1155,37.6696 89.7145,37.8676 89.3145,38.1876 C88.6065,38.7546 88.3035,39.6926 88.8175,40.3346 C89.9125,41.6996 92.8995,38.9126 94.4375,40.8366 C95.3045,41.9186 94.7045,43.2346 93.6135,44.1076 C93.2605,44.3866 92.8675,44.6086 92.4335,44.8196 C92.3445,44.8606 92.2375,44.9486 92.2595,45.0806 L92.1515,45.1676 L90.8265,44.1926 L90.9915,44.0596 C90.9915,44.0596 91.0285,44.0706 91.0955,44.0876 C91.4685,44.1566 91.9435,44.1056 92.1635,44.0366 C92.4615,43.9496 92.8205,43.7306 93.0195,43.5706 C93.5785,43.1246 94.0425,42.3576 93.5355,41.7226 C92.6175,40.5736 89.5115,43.0986 88.0175,41.3816 C87.1965,40.4406 87.2215,38.7786 88.8855,37.4496 C89.3205,37.0996 89.8075,36.8246 90.2955,36.5946 C90.4885,36.5126 90.4305,36.3396 90.4305,36.3396 L90.5225,36.2656 Z" id="Fill-75"></path>
                                    <path d="M87.5469,38.7788 L88.7099,40.1768 L88.5629,40.2818 C88.4249,40.2148 87.9439,39.9938 87.3089,40.0268 C86.8269,40.0518 86.3919,40.1508 85.9289,40.3698 C85.1089,40.7568 84.5979,41.5988 84.9489,42.3418 C85.6949,43.9258 89.2459,41.9038 90.2959,44.1308 C90.8899,45.3858 90.0009,46.5238 88.7369,47.1208 C88.3329,47.3118 87.8969,47.4378 87.4279,47.5418 C87.3309,47.5598 87.2059,47.6228 87.1959,47.7558 L87.0729,47.8158 L86.0069,46.5618 L86.2009,46.4678 C86.2009,46.4678 86.2339,46.4868 86.2949,46.5178 C86.6399,46.6738 87.1149,46.7318 87.3469,46.7208 C87.6549,46.6998 88.0529,46.5718 88.2859,46.4618 C88.9309,46.1578 89.5609,45.5188 89.2139,44.7848 C88.5869,43.4538 84.9839,45.1888 83.9299,43.1778 C83.3479,42.0728 83.7529,40.4648 85.6839,39.5538 C86.1859,39.3148 86.7229,39.1568 87.2489,39.0528 C87.4569,39.0128 87.4419,38.8318 87.4419,38.8318 L87.5469,38.7788 Z" id="Fill-77"></path>
                                    <path d="M84.0898,40.5332 L84.9028,42.1592 L84.7328,42.2292 C84.6148,42.1362 84.1958,41.8072 83.5728,41.6892 C83.0948,41.6032 82.6478,41.5992 82.1498,41.7062 C81.2598,41.8942 80.5688,42.5962 80.7378,43.3972 C81.0988,45.1112 85.0218,43.9682 85.5288,46.3772 C85.8178,47.7332 84.6888,48.6392 83.3188,48.9272 C82.8838,49.0182 82.4278,49.0372 81.9448,49.0302 C81.8518,49.0302 81.7108,49.0582 81.6738,49.1842 L81.5398,49.2152 L80.7928,47.7452 L81.0038,47.7052 C81.0038,47.7052 81.0288,47.7282 81.0818,47.7752 C81.3828,48.0062 81.8318,48.1722 82.0568,48.2092 C82.3628,48.2662 82.7838,48.2362 83.0308,48.1792 C83.7328,48.0332 84.4928,47.5582 84.3258,46.7632 C84.0218,45.3212 80.1148,46.1802 79.5508,43.9742 C79.2438,42.7652 80.0108,41.2962 82.0978,40.8532 C82.6428,40.7412 83.2018,40.7092 83.7398,40.7272 C83.9478,40.7402 83.9748,40.5572 83.9748,40.5572 L84.0898,40.5332 Z" id="Fill-79"></path>
                                    <path d="M80.2988,41.439 L80.7168,43.211 L80.5378,43.24 C80.4448,43.119 80.1118,42.708 79.5288,42.447 C79.0838,42.256 78.6518,42.147 78.1408,42.139 C77.2328,42.117 76.3988,42.645 76.3808,43.464 C76.3408,45.215 80.4218,44.996 80.3658,47.463 C80.3338,48.844 79.0288,49.468 77.6328,49.438 C77.1838,49.425 76.7398,49.341 76.2718,49.223 C76.1758,49.202 76.0358,49.199 75.9698,49.315 L75.8298,49.312 L75.4428,47.711 L75.6538,47.719 C75.6538,47.719 75.6758,47.749 75.7148,47.803 C75.9548,48.098 76.3538,48.362 76.5648,48.452 C76.8518,48.578 77.2658,48.641 77.5218,48.646 C78.2358,48.662 79.0838,48.37 79.1038,47.56 C79.1358,46.091 75.1368,46.031 75.0938,43.753 C75.0668,42.507 76.1528,41.249 78.2858,41.3 C78.8408,41.313 79.3928,41.411 79.9138,41.549 C80.1148,41.608 80.1828,41.436 80.1828,41.436 L80.2988,41.439 Z" id="Fill-81"></path>
                                    <path d="M76.4062,41.4614 L76.4042,43.2784 L76.2222,43.2624 C76.1582,43.1274 75.9282,42.6474 75.4242,42.2614 C75.0392,41.9734 74.6402,41.7704 74.1442,41.6394 C73.2692,41.4094 72.3352,41.7284 72.1262,42.5224 C71.6832,44.2144 75.7032,44.9464 75.0762,47.3304 C74.7262,48.6714 73.3122,48.9744 71.9612,48.6204 C71.5272,48.5044 71.1152,48.3214 70.6872,48.0984 C70.5992,48.0524 70.4662,48.0184 70.3732,48.1154 L70.2422,48.0774 L70.2302,46.4334 L70.4362,46.4864 C70.4362,46.4864 70.4472,46.5234 70.4762,46.5884 C70.6402,46.9254 70.9672,47.2774 71.1542,47.4134 C71.4012,47.6004 71.7912,47.7584 72.0402,47.8224 C72.7292,48.0064 73.6242,47.9184 73.8282,47.1344 C74.1992,45.7104 70.3252,44.7284 70.8062,42.5074 C71.0732,41.2864 72.4182,40.3164 74.4812,40.8564 C75.0172,40.9964 75.5342,41.2214 76.0042,41.4764 C76.1872,41.5804 76.2912,41.4314 76.2912,41.4314 L76.4062,41.4614 Z" id="Fill-83"></path>
                                    <path d="M72.6133,40.582 L72.1943,42.351 L72.0153,42.293 C71.9893,42.144 71.8763,41.625 71.4753,41.137 C71.1653,40.764 70.8223,40.472 70.3723,40.231 C69.5703,39.806 68.5923,39.899 68.2033,40.626 C67.3843,42.17 71.1253,43.811 69.9673,45.987 C69.3143,47.208 67.8693,47.177 66.6383,46.52 C66.2433,46.311 65.8813,46.034 65.5163,45.72 C65.4413,45.657 65.3203,45.59 65.2083,45.665 L65.0853,45.603 L65.4563,43.997 L65.6463,44.095 C65.6463,44.095 65.6493,44.133 65.6613,44.201 C65.7423,44.572 65.9803,44.987 66.1293,45.163 C66.3283,45.401 66.6693,45.642 66.8923,45.764 C67.5253,46.099 68.4153,46.223 68.7953,45.509 C69.4883,44.208 65.9403,42.357 66.9243,40.308 C67.4653,39.18 68.9963,38.546 70.8813,39.547 C71.3693,39.811 71.8163,40.145 72.2213,40.505 C72.3743,40.646 72.5093,40.525 72.5093,40.525 L72.6133,40.582 Z" id="Fill-85"></path>
                                    <path d="M69.127,38.8398 L68.308,40.4648 L68.15,40.3698 C68.157,40.2188 68.168,39.6898 67.891,39.1148 C67.674,38.6808 67.41,38.3218 67.024,37.9838 C66.344,37.3858 65.368,37.2518 64.826,37.8678 C63.669,39.1778 66.932,41.6408 65.302,43.4888 C64.387,44.5288 62.987,44.1678 61.94,43.2398 C61.602,42.9418 61.316,42.5918 61.033,42.2028 C60.978,42.1238 60.873,42.0318 60.745,42.0738 L60.644,41.9858 L61.374,40.5088 L61.533,40.6518 C61.533,40.6518 61.528,40.6928 61.524,40.7568 C61.518,41.1378 61.654,41.5958 61.758,41.8028 C61.897,42.0778 62.173,42.3938 62.367,42.5628 C62.9,43.0358 63.738,43.3598 64.273,42.7518 C65.246,41.6488 62.223,39.0268 63.654,37.2608 C64.439,36.2898 66.077,36.0268 67.677,37.4348 C68.094,37.8048 68.453,38.2338 68.762,38.6738 C68.881,38.8498 69.039,38.7658 69.039,38.7658 L69.127,38.8398 Z" id="Fill-87"></path>
                                    <path d="M66.1426,36.3584 L64.9726,37.7514 L64.8446,37.6234 C64.8826,37.4764 65.0156,36.9624 64.8736,36.3434 C64.7626,35.8744 64.5866,35.4604 64.2906,35.0444 C63.7656,34.3034 62.8456,33.9534 62.1756,34.4284 C60.7496,35.4414 63.3656,38.5834 61.3576,40.0124 C60.2286,40.8164 58.9486,40.1384 58.1376,39.0004 C57.8786,38.6354 57.6796,38.2274 57.4936,37.7834 C57.4556,37.6934 57.3746,37.5804 57.2446,37.5954 L57.1626,37.4834 L58.2086,36.2134 L58.3346,36.3864 C58.3346,36.3864 58.3206,36.4244 58.3006,36.4884 C58.2066,36.8564 58.2346,37.3334 58.2896,37.5574 C58.3606,37.8624 58.5586,38.2304 58.7076,38.4394 C59.1216,39.0224 59.8636,39.5284 60.5226,39.0594 C61.7226,38.2054 59.3776,34.9644 61.1756,33.5704 C62.1596,32.8024 63.8146,32.9204 65.0486,34.6584 C65.3726,35.1104 65.6236,35.6134 65.8246,36.1114 C65.8976,36.3094 66.0756,36.2644 66.0756,36.2644 L66.1426,36.3584 Z" id="Fill-89"></path>
                                    <path d="M63.7959,33.2451 L62.3359,34.3291 L62.2359,34.1731 C62.3149,34.0411 62.5609,33.5721 62.5669,32.9381 C62.5669,32.4531 62.4939,32.0111 62.3019,31.5381 C61.9619,30.6971 61.1509,30.1401 60.3879,30.4501 C58.7689,31.1001 60.5799,34.7621 58.2969,35.6871 C57.0119,36.2061 55.9249,35.2531 55.4029,33.9581 C55.2329,33.5411 55.1349,33.0991 55.0589,32.6241 C55.0419,32.5281 54.9909,32.4011 54.8569,32.3841 L54.8049,32.2551 L56.1189,31.2651 L56.1989,31.4601 C56.1989,31.4601 56.1759,31.4951 56.1449,31.5551 C55.9669,31.8911 55.8839,32.3611 55.8839,32.5921 C55.8839,32.9011 55.9899,33.3071 56.0869,33.5411 C56.3529,34.2071 56.9569,34.8711 57.7069,34.5661 C59.0719,34.0161 57.5439,30.3191 59.6129,29.3801 C60.7479,28.8621 62.3319,29.3631 63.1309,31.3411 C63.3369,31.8541 63.4649,32.4011 63.5439,32.9341 C63.5689,33.1401 63.7499,33.1361 63.7499,33.1361 L63.7959,33.2451 Z" id="Fill-91"></path>
                                    <path d="M62.2422,29.6899 L60.5732,30.4089 L60.5132,30.2349 C60.6172,30.1239 60.9642,29.7239 61.1182,29.1079 C61.2282,28.6389 61.2582,28.1899 61.1812,27.6849 C61.0472,26.7909 60.3852,26.0619 59.5722,26.1839 C57.8442,26.4489 58.7632,30.4239 56.3292,30.7959 C54.9592,31.0059 54.1222,29.8279 53.9122,28.4479 C53.8442,28.0029 53.8492,27.5519 53.8852,27.0709 C53.8902,26.9729 53.8712,26.8349 53.7442,26.7909 L53.7232,26.6539 L55.2322,25.9949 L55.2632,26.2059 C55.2632,26.2059 55.2342,26.2289 55.1882,26.2789 C54.9392,26.5669 54.7502,27.0059 54.6962,27.2279 C54.6242,27.5319 54.6322,27.9489 54.6732,28.2039 C54.7772,28.9089 55.2122,29.6929 56.0122,29.5749 C57.4682,29.3519 56.8322,25.4009 59.0642,24.9679 C60.2892,24.7269 61.7132,25.5789 62.0342,27.6849 C62.1172,28.2339 62.1162,28.7939 62.0682,29.3319 C62.0462,29.5369 62.2242,29.5779 62.2242,29.5779 L62.2422,29.6899 Z" id="Fill-93"></path>
                                    <path d="M61.5479,25.8496 L59.7579,26.1656 L59.7379,25.9846 C59.8659,25.9006 60.2959,25.5886 60.5859,25.0256 C60.8039,24.5916 60.9359,24.1636 60.9749,23.6546 C61.0469,22.7476 60.5699,21.8866 59.7509,21.8226 C58.0039,21.6826 57.9909,25.7736 55.5339,25.5776 C54.1519,25.4676 53.6069,24.1276 53.7159,22.7366 C53.7499,22.2876 53.8609,21.8476 54.0029,21.3876 C54.0349,21.2926 54.0449,21.1566 53.9319,21.0826 L53.9429,20.9436 L55.5639,20.6446 L55.5469,20.8556 C55.5469,20.8556 55.5129,20.8756 55.4529,20.9136 C55.1509,21.1376 54.8599,21.5186 54.7599,21.7266 C54.6179,22.0066 54.5329,22.4126 54.5119,22.6686 C54.4569,23.3806 54.6959,24.2456 55.5079,24.3126 C56.9759,24.4256 57.2579,20.4376 59.5319,20.5206 C60.7799,20.5666 61.9739,21.7216 61.8029,23.8476 C61.7599,24.4006 61.6309,24.9476 61.4619,25.4566 C61.3919,25.6556 61.5599,25.7336 61.5599,25.7336 L61.5479,25.8496 Z" id="Fill-95"></path>
                                    <path d="M61.748,21.9668 L59.934,21.8618 L59.959,21.6798 C60.099,21.6258 60.591,21.4248 61.005,20.9438 C61.313,20.5718 61.541,20.1848 61.699,19.6958 C61.979,18.8338 61.712,17.8848 60.933,17.6338 C59.267,17.0938 58.307,21.0658 55.962,20.3078 C54.642,19.8798 54.419,18.4528 54.85,17.1228 C54.986,16.6958 55.194,16.2938 55.442,15.8808 C55.494,15.7948 55.535,15.6638 55.443,15.5658 L55.486,15.4358 L57.131,15.5188 L57.064,15.7198 C57.064,15.7198 57.027,15.7298 56.964,15.7578 C56.613,15.8978 56.243,16.2068 56.099,16.3818 C55.898,16.6218 55.719,16.9998 55.641,17.2438 C55.42,17.9248 55.455,18.8218 56.227,19.0708 C57.63,19.5248 58.828,15.7088 61.02,16.3158 C62.223,16.6478 63.117,18.0468 62.461,20.0778 C62.29,20.6068 62.039,21.1108 61.754,21.5648 C61.643,21.7438 61.785,21.8568 61.785,21.8568 L61.748,21.9668 Z" id="Fill-97"></path>
                                    <path d="M62.8398,18.2485 L61.0998,17.7255 L61.1638,17.5555 C61.3138,17.5355 61.8378,17.4535 62.3538,17.0765 C62.7398,16.7875 63.0508,16.4655 63.3168,16.0275 C63.7868,15.2515 63.7468,14.2675 63.0458,13.8435 C61.5488,12.9335 59.6998,16.5775 57.5948,15.2975 C56.4068,14.5795 56.5238,13.1375 57.2478,11.9445 C57.4818,11.5605 57.7778,11.2145 58.1118,10.8705 C58.1798,10.7985 58.2498,10.6805 58.1858,10.5645 L58.2558,10.4455 L59.8358,10.9065 L59.7238,11.0895 C59.7238,11.0895 59.6868,11.0895 59.6188,11.0995 C59.2438,11.1585 58.8188,11.3715 58.6308,11.5115 C58.3848,11.6975 58.1208,12.0235 57.9888,12.2435 C57.6178,12.8535 57.4438,13.7345 58.1378,14.1555 C59.3948,14.9195 61.4438,11.4835 63.4368,12.5825 C64.5308,13.1845 65.0778,14.7505 63.9698,16.5745 C63.6828,17.0495 63.3188,17.4775 62.9408,17.8585 C62.7888,18.0045 62.9018,18.1475 62.9018,18.1475 L62.8398,18.2485 Z" id="Fill-99"></path>
                                    <path d="M64.7744,14.8555 L63.1984,13.9485 L63.3044,13.7955 C63.4574,13.8075 63.9824,13.8505 64.5714,13.6055 C65.0134,13.4105 65.3864,13.1685 65.7464,12.8045 C66.3814,12.1585 66.5694,11.1925 65.9854,10.6145 C64.7394,9.3895 62.1014,12.5085 60.3464,10.7815 C59.3614,9.8105 59.8014,8.4335 60.7834,7.4385 C61.0974,7.1195 61.4614,6.8515 61.8684,6.5905 C61.9484,6.5395 62.0474,6.4395 62.0084,6.3115 L62.1064,6.2125 L63.5374,7.0245 L63.3884,7.1765 C63.3884,7.1765 63.3504,7.1665 63.2824,7.1625 C62.9044,7.1345 62.4354,7.2445 62.2284,7.3355 C61.9414,7.4565 61.6124,7.7175 61.4344,7.9005 C60.9324,8.4085 60.5614,9.2265 61.1384,9.7935 C62.1874,10.8265 64.9684,7.9565 66.6564,9.4795 C67.5784,10.3165 67.7534,11.9655 66.2574,13.4845 C65.8674,13.8815 65.4184,14.2165 64.9604,14.5015 C64.7794,14.6055 64.8584,14.7695 64.8584,14.7695 L64.7744,14.8555 Z" id="Fill-101"></path>
                                    <path d="M67.4258,12.0063 L66.0978,10.7623 L66.2368,10.6383 C66.3788,10.6873 66.8848,10.8493 67.5108,10.7453 C67.9868,10.6583 68.4078,10.5053 68.8438,10.2353 C69.6088,9.7523 70.0138,8.8523 69.5758,8.1563 C68.6438,6.6803 65.3628,9.1103 64.0508,7.0273 C63.3108,5.8533 64.0538,4.6143 65.2388,3.8703 C65.6168,3.6313 66.0368,3.4563 66.4888,3.2963 C66.5828,3.2623 66.6988,3.1873 66.6918,3.0563 L66.8088,2.9823 L68.0158,4.1013 L67.8348,4.2123 C67.8348,4.2123 67.7998,4.1953 67.7378,4.1753 C67.3738,4.0623 66.8958,4.0623 66.6688,4.1053 C66.3638,4.1563 65.9838,4.3353 65.7678,4.4683 C65.1618,4.8513 64.6138,5.5623 65.0468,6.2463 C65.8288,7.4923 69.1968,5.3353 70.4888,7.2053 C71.1988,8.2333 70.9888,9.8813 69.1828,11.0143 C68.7128,11.3103 68.1988,11.5313 67.6888,11.7053 C67.4878,11.7663 67.5248,11.9443 67.5248,11.9443 L67.4258,12.0063 Z" id="Fill-103"></path>
                                    <path d="M70.6592,9.8452 L69.6562,8.3272 L69.8172,8.2402 C69.9492,8.3192 70.4002,8.5942 71.0362,8.6372 C71.5192,8.6642 71.9622,8.6122 72.4482,8.4482 C73.3062,8.1552 73.9082,7.3752 73.6432,6.5992 C73.0802,4.9442 69.3212,6.5482 68.5282,4.2152 C68.0842,2.9052 69.0952,1.8702 70.4182,1.4232 C70.8402,1.2762 71.2892,1.2032 71.7672,1.1552 C71.8652,1.1412 71.9982,1.0982 72.0202,0.9682 L72.1512,0.9222 L73.0662,2.2882 L72.8652,2.3582 C72.8652,2.3582 72.8362,2.3352 72.7772,2.2992 C72.4512,2.1032 71.9862,1.9912 71.7562,1.9792 C71.4452,1.9612 71.0342,2.0442 70.7932,2.1262 C70.1152,2.3582 69.4192,2.9222 69.6792,3.6902 C70.1522,5.0812 73.9292,3.7612 74.7532,5.8852 C75.2032,7.0492 74.6192,8.6012 72.5962,9.2872 C72.0732,9.4672 71.5212,9.5652 70.9852,9.6112 C70.7752,9.6272 70.7702,9.8102 70.7702,9.8102 L70.6592,9.8452 Z" id="Fill-105"></path>
                                    <path d="M74.2959,8.4985 L73.6659,6.7905 L73.8459,6.7435 C73.9509,6.8485 74.3309,7.2185 74.9399,7.4065 C75.4019,7.5425 75.8449,7.5955 76.3559,7.5485 C77.2589,7.4565 78.0229,6.8355 77.9429,6.0185 C77.7729,4.2755 73.7479,4.9825 73.5059,2.5315 C73.3719,1.1515 74.5919,0.3775 75.9829,0.2385 C76.4299,0.1995 76.8819,0.2275 77.3609,0.2905 C77.4589,0.3005 77.5959,0.2865 77.6499,0.1635 L77.7869,0.1505 L78.3649,1.6905 L78.1539,1.7095 C78.1539,1.7095 78.1309,1.6805 78.0819,1.6325 C77.8089,1.3695 77.3809,1.1555 77.1589,1.0905 C76.8609,1.0015 76.4429,0.9895 76.1879,1.0155 C75.4769,1.0845 74.6679,1.4755 74.7469,2.2805 C74.8899,3.7455 78.8689,3.3245 79.1849,5.5775 C79.3599,6.8115 78.4339,8.1895 76.3119,8.3975 C75.7589,8.4505 75.1989,8.4205 74.6659,8.3445 C74.4609,8.3105 74.4139,8.4865 74.4139,8.4865 L74.2959,8.4985 Z" id="Fill-107"></path>
                                    <path d="M24.2812,9.584 C26.0352,9.199 26.5372,8.385 26.7292,6.721 L27.3642,1.232 C27.3872,1.063 27.3462,0.952 27.2052,0.859 L26.7172,0.533 L26.7412,0.333 L29.4002,0.643 L29.3772,0.841 L28.8272,1.047 C28.6722,1.103 28.6032,1.204 28.5872,1.373 L27.9462,6.874 C27.8192,7.976 27.4352,8.682 26.9542,9.121 C26.0292,9.981 24.2582,9.795 24.2582,9.795 L24.2812,9.584 Z" id="Fill-109"></path>
                                    <path d="M26.8613,9.665 C28.6563,9.579 29.2893,8.865 29.7593,7.259 L31.3193,1.96 C31.3683,1.795 31.3443,1.678 31.2253,1.563 L30.7983,1.162 L30.8553,0.968 L33.4233,1.721 L33.3673,1.917 L32.7913,2.024 C32.6233,2.057 32.5433,2.142 32.4963,2.305 L30.9333,7.615 C30.6203,8.68 30.1223,9.311 29.5763,9.663 C28.5163,10.35 26.8003,9.87 26.8003,9.87 L26.8613,9.665 Z" id="Fill-111"></path>
                                    <path d="M29.3965,10.1816 C31.1775,10.4046 31.9215,9.8096 32.6625,8.3066 L35.1015,3.3486 C35.1775,3.1956 35.1755,3.0766 35.0765,2.9426 L34.7235,2.4736 L34.8135,2.2916 L37.2155,3.4736 L37.1265,3.6556 L36.5395,3.6646 C36.3725,3.6666 36.2785,3.7376 36.2035,3.8896 L33.7575,8.8586 C33.2675,9.8546 32.6705,10.3916 32.0715,10.6406 C30.9095,11.1416 29.3035,10.3716 29.3035,10.3716 L29.3965,10.1816 Z" id="Fill-113"></path>
                                    <path d="M31.8018,11.123 C33.5208,11.644 34.3528,11.181 35.3348,9.827 L38.5768,5.355 C38.6758,5.217 38.6958,5.097 38.6168,4.95 L38.3518,4.429 L38.4698,4.264 L40.6388,5.833 L40.5198,5.998 L39.9398,5.908 C39.7758,5.88 39.6678,5.936 39.5698,6.073 L36.3228,10.556 C35.6698,11.452 34.9938,11.883 34.3598,12.031 C33.1308,12.327 31.6758,11.298 31.6758,11.298 L31.8018,11.123 Z" id="Fill-115"></path>
                                    <path d="M34.0283,12.4731 C35.6323,13.2741 36.5333,12.9631 37.7303,11.7901 L41.6813,7.9311 C41.8033,7.8091 41.8433,7.6961 41.7923,7.5391 L41.6173,6.9781 L41.7623,6.8381 L43.6333,8.7531 L43.4893,8.8951 L42.9323,8.7051 C42.7773,8.6511 42.6643,8.6881 42.5413,8.8071 L38.5793,12.6761 C37.7873,13.4521 37.0453,13.7611 36.3963,13.7961 C35.1353,13.8811 33.8733,12.6201 33.8733,12.6201 L34.0283,12.4731 Z" id="Fill-117"></path>
                                    <path d="M35.9863,14.1709 C37.4333,15.2339 38.3723,15.0769 39.7523,14.1269 L44.3003,10.9919 C44.4373,10.8929 44.4963,10.7879 44.4723,10.6259 L44.3953,10.0429 L44.5633,9.9279 L46.0813,12.1329 L45.9143,12.2469 L45.3983,11.9679 C45.2533,11.8859 45.1343,11.9039 44.9963,12.0019 L40.4383,15.1429 C39.5253,15.7709 38.7423,15.9499 38.0953,15.8759 C36.8403,15.7439 35.8123,14.2899 35.8123,14.2899 L35.9863,14.1709 Z" id="Fill-119"></path>
                                    <path d="M37.627,16.1675 C38.875,17.4585 39.828,17.4635 41.348,16.7585 L46.355,14.4365 C46.51,14.3625 46.586,14.2715 46.59,14.1025 L46.611,13.5145 L46.796,13.4315 L47.922,15.8595 L47.738,15.9455 L47.275,15.5825 C47.145,15.4795 47.025,15.4765 46.869,15.5485 L41.851,17.8765 C40.847,18.3415 40.042,18.3865 39.419,18.2045 C38.203,17.8635 37.434,16.2575 37.434,16.2575 L37.627,16.1675 Z" id="Fill-121"></path>
                                    <path d="M38.9111,18.4185 C39.9191,19.9055 40.8571,20.0725 42.4751,19.6375 L47.8121,18.2055 C47.9761,18.1635 48.0661,18.0815 48.0991,17.9175 L48.2241,17.3435 L48.4191,17.2925 L49.1121,19.8755 L48.9171,19.9325 L48.5221,19.4925 C48.4121,19.3705 48.2971,19.3475 48.1311,19.3895 L42.7841,20.8285 C41.7121,21.1145 40.9131,21.0195 40.3281,20.7335 C39.1871,20.1895 38.7051,18.4745 38.7051,18.4745 L38.9111,18.4185 Z" id="Fill-123"></path>
                                    <path d="M39.792,20.8618 C40.529,22.4948 41.426,22.8198 43.093,22.6678 L48.593,22.1688 C48.764,22.1508 48.865,22.0878 48.926,21.9308 L49.144,21.3888 L49.346,21.3698 L49.587,24.0368 L49.386,24.0538 L49.072,23.5568 C48.984,23.4178 48.873,23.3718 48.705,23.3888 L43.194,23.8908 C42.088,23.9908 41.317,23.7608 40.793,23.3788 C39.76,22.6518 39.578,20.8788 39.578,20.8788 L39.792,20.8618 Z" id="Fill-125"></path>
                                    <path d="M40.2393,23.4204 C40.6903,25.1554 41.5233,25.6254 43.1923,25.7544 L48.6963,26.1804 C48.8673,26.1934 48.9743,26.1494 49.0633,26.0054 L49.3693,25.5054 L49.5723,25.5214 L49.3633,28.1874 L49.1623,28.1734 L48.9353,27.6294 C48.8733,27.4754 48.7723,27.4174 48.6013,27.4034 L43.0843,26.9754 C41.9793,26.8904 41.2593,26.5364 40.8013,26.0714 C39.9123,25.1804 40.0263,23.4014 40.0263,23.4014 L40.2393,23.4204 Z" id="Fill-127"></path>
                                    <path d="M40.2549,26.0024 C40.4079,27.7934 41.1469,28.3984 42.7689,28.8084 L48.1289,30.1614 C48.2959,30.2044 48.4109,30.1774 48.5209,30.0524 L48.9059,29.6104 L49.1019,29.6604 L48.4459,32.2554 L48.2489,32.2064 L48.1189,31.6364 C48.0839,31.4724 47.9909,31.3904 47.8279,31.3534 L42.4589,29.9944 C41.3839,29.7234 40.7339,29.2514 40.3609,28.7174 C39.6319,27.6844 40.0489,25.9514 40.0489,25.9514 L40.2549,26.0024 Z" id="Fill-129"></path>
                                    <path d="M39.833,28.5645 C39.678,30.3525 40.299,31.0765 41.827,31.7585 L46.869,34.0125 C47.025,34.0845 47.145,34.0795 47.272,33.9735 L47.73,33.6025 L47.916,33.6855 L46.821,36.1305 L46.639,36.0465 L46.608,35.4605 C46.6,35.2955 46.525,35.2055 46.369,35.1335 L41.317,32.8725 C40.306,32.4215 39.746,31.8435 39.472,31.2575 C38.931,30.1145 39.639,28.4785 39.639,28.4785 L39.833,28.5645 Z" id="Fill-131"></path>
                                    <path d="M38.9824,30.9985 C38.5284,32.7355 39.0194,33.5525 40.4124,34.4815 L45.0054,37.5545 C45.1494,37.6475 45.2674,37.6635 45.4124,37.5805 L45.9234,37.2915 L46.0934,37.4085 L44.6044,39.6345 L44.4354,39.5185 L44.5034,38.9385 C44.5254,38.7735 44.4654,38.6695 44.3244,38.5755 L39.7234,35.4955 C38.7994,34.8795 38.3434,34.2155 38.1734,33.5875 C37.8334,32.3735 38.8044,30.8785 38.8044,30.8785 L38.9824,30.9985 Z" id="Fill-133"></path>
                                    <path d="M37.7207,33.2754 C36.9767,34.9084 37.3247,35.7964 38.5367,36.9464 L42.5407,40.7534 C42.6657,40.8694 42.7797,40.9044 42.9347,40.8484 L43.4877,40.6524 L43.6357,40.7934 L41.7917,42.7334 L41.6447,42.5914 L41.8117,42.0314 C41.8627,41.8714 41.8197,41.7594 41.6977,41.6424 L37.6857,37.8314 C36.8797,37.0684 36.5447,36.3334 36.4847,35.6894 C36.3527,34.4354 37.5657,33.1274 37.5657,33.1274 L37.7207,33.2754 Z" id="Fill-135"></path>
                                    <path d="M36.1035,35.2856 C35.0975,36.7726 35.2915,37.7066 36.2925,39.0486 L39.6005,43.4736 C39.7055,43.6126 39.8085,43.6626 39.9745,43.6366 L40.5525,43.5356 L40.6745,43.6976 L38.5305,45.2996 L38.4105,45.1376 L38.6685,44.6086 C38.7425,44.4606 38.7225,44.3456 38.6195,44.2076 L35.3045,39.7716 C34.6395,38.8836 34.4315,38.1076 34.4825,37.4586 C34.5635,36.1986 35.9775,35.1156 35.9775,35.1156 L36.1035,35.2856 Z" id="Fill-137"></path>
                                    <path d="M34.167,37.0049 C32.922,38.2979 32.954,39.2529 33.715,40.7469 L36.228,45.6649 C36.307,45.8169 36.401,45.8889 36.568,45.8879 L37.156,45.8879 L37.248,46.0679 L34.863,47.2859 L34.773,47.1029 L35.115,46.6289 C35.215,46.4949 35.215,46.3759 35.136,46.2229 L32.617,41.2949 C32.115,40.3069 32.041,39.5039 32.197,38.8739 C32.492,37.6459 34.068,36.8119 34.068,36.8119 L34.167,37.0049 Z" id="Fill-139"></path>
                                    <path d="M31.9619,38.3765 C30.5159,39.4385 30.3839,40.3835 30.8769,41.9825 L32.5119,47.2635 C32.5629,47.4265 32.6449,47.5145 32.8109,47.5375 L33.3879,47.6385 L33.4479,47.8325 L30.8889,48.6245 L30.8279,48.4325 L31.2519,48.0215 C31.3709,47.9055 31.3889,47.7865 31.3399,47.6245 L29.7029,42.3355 C29.3749,41.2755 29.4399,40.4735 29.7009,39.8815 C30.2019,38.7185 31.8989,38.1745 31.8989,38.1745 L31.9619,38.3765 Z" id="Fill-141"></path>
                                    <path d="M29.5625,39.3462 C27.9535,40.1462 27.6635,41.0542 27.8795,42.7142 L28.5905,48.1972 C28.6145,48.3642 28.6815,48.4622 28.8345,48.5172 L29.3885,48.7172 L29.4165,48.9172 L26.7615,49.2632 L26.7365,49.0592 L27.2185,48.7292 C27.3585,48.6372 27.3955,48.5212 27.3745,48.3532 L26.6625,42.8642 C26.5195,41.7612 26.7175,40.9852 27.0785,40.4402 C27.7715,39.3862 29.5335,39.1352 29.5335,39.1352 L29.5625,39.3462 Z" id="Fill-143"></path>
                                    <path d="M27.0264,39.8906 C25.3074,40.4066 24.8684,41.2556 24.8044,42.9316 L24.5884,48.4516 C24.5824,48.6196 24.6314,48.7306 24.7754,48.8116 L25.2874,49.0986 L25.2804,49.2996 L22.6054,49.1956 L22.6134,48.9936 L23.1464,48.7476 C23.2974,48.6786 23.3554,48.5756 23.3634,48.4046 L23.5784,42.8696 C23.6204,41.7616 23.9504,41.0286 24.3954,40.5546 C25.2544,39.6306 27.0334,39.6756 27.0334,39.6756 L27.0264,39.8906 Z" id="Fill-145"></path>
                                    <path d="M24.4365,40.0034 C22.6555,40.2234 22.0805,40.9864 21.7315,42.6244 L20.5825,48.0294 C20.5465,48.1984 20.5775,48.3124 20.7075,48.4164 L21.1645,48.7874 L21.1215,48.9834 L18.5025,48.4264 L18.5455,48.2294 L19.1095,48.0774 C19.2735,48.0354 19.3475,47.9424 19.3845,47.7764 L20.5325,42.3594 C20.7635,41.2734 21.2115,40.6054 21.7315,40.2134 C22.7355,39.4444 24.4825,39.7944 24.4825,39.7944 L24.4365,40.0034 Z" id="Fill-147"></path>
                                    <path d="M21.8604,39.6792 C20.0694,39.5922 19.3704,40.2422 18.7474,41.7962 L16.6864,46.9222 C16.6244,47.0812 16.6324,47.2002 16.7444,47.3252 L17.1294,47.7702 L17.0544,47.9562 L14.5704,46.9582 L14.6444,46.7672 L15.2284,46.7182 C15.3944,46.7022 15.4864,46.6232 15.5484,46.4672 L17.6114,41.3292 C18.0254,40.3002 18.5824,39.7192 19.1624,39.4212 C20.2804,38.8362 21.9394,39.4822 21.9394,39.4822 L21.8604,39.6792 Z" id="Fill-149"></path>
                                    <path d="M19.3965,38.9229 C17.6445,38.5349 16.8455,39.0599 15.9665,40.4829 L13.0685,45.1859 C12.9805,45.3329 12.9675,45.4519 13.0565,45.5939 L13.3615,46.0949 L13.2555,46.2689 L10.9765,44.8629 L11.0835,44.6899 L11.6675,44.7389 C11.8345,44.7519 11.9355,44.6899 12.0255,44.5449 L14.9265,39.8299 C15.5085,38.8849 16.1555,38.4049 16.7755,38.2119 C17.9795,37.8249 19.5065,38.7429 19.5065,38.7429 L19.3965,38.9229 Z" id="Fill-151"></path>
                                    <path d="M17.0781,37.7515 C15.4181,37.0705 14.5441,37.4515 13.4371,38.7065 L9.7861,42.8545 C9.6751,42.9815 9.6421,43.0985 9.7031,43.2525 L9.9211,43.7995 L9.7871,43.9495 L7.7771,42.1815 L7.9121,42.0285 L8.4801,42.1745 C8.6401,42.2165 8.7531,42.1705 8.8641,42.0435 L12.5221,37.8905 C13.2571,37.0575 13.9751,36.6945 14.6191,36.6085 C15.8691,36.4295 17.2201,37.5925 17.2201,37.5925 L17.0781,37.7515 Z" id="Fill-153"></path>
                                    <path d="M15,36.2061 C13.478,35.2561 12.551,35.4831 11.249,36.5371 L6.949,40.0101 C6.816,40.1151 6.766,40.2221 6.803,40.3881 L6.924,40.9591 L6.764,41.0871 L5.085,39.0041 L5.24,38.8751 L5.777,39.1151 C5.929,39.1861 6.045,39.1601 6.179,39.0551 L10.484,35.5731 C11.348,34.8751 12.116,34.6391 12.769,34.6641 C14.031,34.6981 15.167,36.0731 15.167,36.0731 L15,36.2061 Z" id="Fill-155"></path>
                                    <path d="M13.21,34.3379 C11.871,33.1439 10.918,33.2109 9.457,34.0289 L4.639,36.7259 C4.488,36.8089 4.422,36.9079 4.429,37.0759 L4.451,37.6619 L4.272,37.7609 L2.967,35.4239 L3.145,35.3259 L3.631,35.6499 C3.771,35.7439 3.888,35.7399 4.037,35.6559 L8.868,32.9529 C9.836,32.4119 10.633,32.3089 11.27,32.4399 C12.509,32.6899 13.396,34.2329 13.396,34.2329 L13.21,34.3379 Z" id="Fill-157"></path>
                                    <path d="M11.7617,32.1934 C10.6447,30.7884 9.6957,30.6924 8.1167,31.2504 L2.9077,33.0834 C2.7447,33.1394 2.6607,33.2234 2.6427,33.3904 L2.5617,33.9714 L2.3727,34.0384 L1.4847,31.5144 L1.6737,31.4474 L2.1007,31.8504 C2.2187,31.9674 2.3367,31.9844 2.4997,31.9254 L7.7207,30.0874 C8.7667,29.7214 9.5687,29.7534 10.1737,29.9934 C11.3517,30.4524 11.9607,32.1224 11.9607,32.1224 L11.7617,32.1934 Z" id="Fill-159"></path>
                                    <path d="M10.7021,29.8315 C9.8401,28.2585 8.9191,28.0025 7.2681,28.2835 L1.8201,29.2055 C1.6511,29.2345 1.5561,29.3015 1.5071,29.4635 L1.3331,30.0215 L1.1311,30.0585 L0.6861,27.4175 L0.8851,27.3835 L1.2351,27.8525 C1.3361,27.9895 1.4491,28.0235 1.6151,27.9945 L7.0741,27.0715 C8.1701,26.8885 8.9541,27.0575 9.5081,27.3945 C10.5931,28.0455 10.9111,29.7975 10.9111,29.7975 L10.7021,29.8315 Z" id="Fill-161"></path>
                                    <path d="M10.0205007,27.3628 C9.46150069,25.6588 8.60550062,25.2378 6.93150049,25.2108 L1.41050006,25.1228 C1.24050005,25.1188 1.13050004,25.1728 1.05550004,25.3178 L0.781500016,25.8378 L0.5775,25.8348 L0.623500004,23.1578 L0.822500019,23.1608 L1.08250004,23.6898 C1.15550004,23.8408 1.25750005,23.8948 1.42950007,23.8988 L6.9625005,23.9878 C8.07150058,24.0048 8.81050064,24.3158 9.29450068,24.7478 C10.2415008,25.5858 10.2345015,27.3658 10.2345015,27.3658 L10.0205007,27.3628 Z" id="Fill-163"></path>
                                    <path d="M9.8477,24.7207 C9.5597,22.9497 8.7787,22.4047 7.1277,22.1167 L1.6837,21.1747 C1.5167,21.1457 1.4027,21.1797 1.3047,21.3147 L0.9527,21.7837 L0.7537,21.7507 L1.2097,19.1117 L1.4097,19.1447 L1.5837,19.7087 C1.6307,19.8667 1.7267,19.9367 1.8967,19.9647 L7.3497,20.9117 C8.4417,21.1017 9.1247,21.5217 9.5337,22.0277 C10.3417,22.9977 10.0567,24.7567 10.0567,24.7567 L9.8477,24.7207 Z" id="Fill-165"></path>
                                    <path d="M10.0713,22.1479 C10.0913,20.3499 9.4133,19.6809 7.8393,19.1179 L2.6383,17.2569 C2.4793,17.2009 2.3593,17.2129 2.2393,17.3309 L1.8123,17.7299 L1.6213,17.6619 L2.5213,15.1449 L2.7133,15.2119 L2.7893,15.7939 C2.8083,15.9589 2.8913,16.0449 3.0523,16.1039 L8.2613,17.9649 C9.3063,18.3379 9.9083,18.8729 10.2273,19.4399 C10.8513,20.5349 10.2733,22.2199 10.2733,22.2199 L10.0713,22.1479 Z" id="Fill-167"></path>
                                    <path d="M10.7363,19.6455 C11.0603,17.8805 10.5093,17.1035 9.0493,16.2805 L4.2383,13.5615 C4.0913,13.4775 3.9693,13.4705 3.8323,13.5645 L3.3423,13.8895 L3.1683,13.7885 L4.4833,11.4565 L4.6583,11.5585 L4.6373,12.1455 C4.6273,12.3115 4.6933,12.4105 4.8433,12.4925 L9.6623,15.2175 C10.6283,15.7635 11.1323,16.3915 11.3473,17.0035 C11.7803,18.1895 10.9233,19.7525 10.9233,19.7525 L10.7363,19.6455 Z" id="Fill-169"></path>
                                    <path d="M11.8174,17.3003 C12.4344,15.6113 12.0194,14.7533 10.7224,13.6943 L6.4384,10.1983 C6.3064,10.0903 6.1894,10.0643 6.0384,10.1333 L5.5004,10.3703 L5.3434,10.2423 L7.0354,8.1663 L7.1924,8.2933 L7.0694,8.8663 C7.0314,9.0313 7.0824,9.1383 7.2154,9.2473 L11.5054,12.7473 C12.3654,13.4523 12.7564,14.1523 12.8684,14.7953 C13.0924,16.0373 11.9814,17.4323 11.9814,17.4323 L11.8174,17.3003 Z" id="Fill-171"></path>
                                    <path d="M13.2871,15.1514 C14.1801,13.5934 13.9181,12.6764 12.8201,11.4134 L9.1891,7.2454 C9.0761,7.1184 8.9681,7.0704 8.8041,7.1134 L8.2341,7.2574 L8.1011,7.1024 L10.1221,5.3444 L10.2541,5.4964 L10.0351,6.0404 C9.9721,6.1964 10.0021,6.3114 10.1161,6.4404 L13.7521,10.6144 C14.4811,11.4514 14.7461,12.2114 14.7461,12.8604 C14.7571,14.1264 13.4291,15.3114 13.4291,15.3114 L13.2871,15.1514 Z" id="Fill-173"></path>
                                    <path d="M15.0879,13.2939 C16.2299,11.9109 16.1249,10.9629 15.2529,9.5339 L12.3759,4.8179 C12.2879,4.6719 12.1879,4.6079 12.0219,4.6259 L11.4349,4.6669 L11.3319,4.4959 L13.6149,3.0999 L13.7209,3.2739 L13.4149,3.7729 C13.3239,3.9159 13.3359,4.0339 13.4239,4.1789 L16.3049,8.9019 C16.8839,9.8519 17.0179,10.6409 16.9089,11.2829 C16.7069,12.5309 15.1979,13.4759 15.1979,13.4759 L15.0879,13.2939 Z" id="Fill-175"></path>
                                    <path d="M17.1914,11.7578 C18.5524,10.5898 18.6124,9.6368 17.9984,8.0798 L15.9674,2.9438 C15.9074,2.7858 15.8174,2.7058 15.6514,2.6918 L15.0674,2.6368 L14.9934,2.4478 L17.4834,1.4658 L17.5564,1.6538 L17.1704,2.0918 C17.0574,2.2178 17.0474,2.3348 17.1094,2.4948 L19.1414,7.6408 C19.5484,8.6718 19.5444,9.4748 19.3284,10.0878 C18.9174,11.2828 17.2694,11.9558 17.2694,11.9558 L17.1914,11.7578 Z" id="Fill-177"></path>
                                    <path d="M19.4941,10.6128 C21.0371,9.6948 21.2581,8.7668 20.9171,7.1258 L19.7971,1.7148 C19.7611,1.5478 19.6881,1.4558 19.5231,1.4138 L18.9601,1.2588 L18.9171,1.0608 L21.5391,0.5138 L21.5801,0.7138 L21.1241,1.0808 C20.9921,1.1858 20.9621,1.2988 20.9961,1.4668 L22.1201,6.8878 C22.3481,7.9738 22.2071,8.7668 21.8891,9.3338 C21.2781,10.4408 19.5381,10.8238 19.5381,10.8238 L19.4941,10.6128 Z" id="Fill-179"></path>
                                    <path d="M21.7588,9.8237 C23.4448,9.2107 23.8328,8.3387 23.8048,6.6627 L23.7048,1.1357 C23.7038,0.9687 23.6458,0.8607 23.4958,0.7877 L22.9688,0.5317 L22.9638,0.3297 L25.6418,0.2817 L25.6448,0.4847 L25.1278,0.7607 C24.9808,0.8367 24.9288,0.9447 24.9328,1.1147 L25.0308,6.6507 C25.0508,7.7617 24.7658,8.5127 24.3468,9.0117 C23.5438,9.9867 21.7608,10.0387 21.7608,10.0387 L21.7588,9.8237 Z" id="Fill-181"></path>
                                    <path d="M136.5322,8.9976 C135.6652,8.7316 134.9192,8.2146 134.5502,7.4176 C134.1952,6.6506 134.3632,5.8436 134.6402,4.9456 L135.7662,1.2726 C135.8182,1.1106 135.7992,0.9936 135.6792,0.8786 L135.2552,0.4696 L135.3172,0.2746 L137.8752,1.0616 L137.8162,1.2576 L137.2372,1.3556 C137.0742,1.3836 136.9902,1.4716 136.9402,1.6336 L135.7882,5.3876 C135.3362,6.8536 135.6072,7.8986 136.8102,8.2676 L136.8732,8.2866 C138.0782,8.6566 138.8852,7.9456 139.3372,6.4796 L140.5042,2.6716 C140.5442,2.5516 140.5152,2.4186 140.4292,2.3396 L139.9942,1.9016 L140.0482,1.7306 L142.5372,2.4956 L142.4822,2.6666 L141.8792,2.7826 C141.7472,2.8106 141.6672,2.8856 141.6192,3.0496 L140.4842,6.7416 C140.2072,7.6386 139.8942,8.4016 139.1712,8.8356 C138.4182,9.2876 137.5102,9.2996 136.6442,9.0326 L136.5322,8.9976 Z" id="Fill-183"></path>
                                    <path d="M141.1709,11.2539 C140.4299,10.7319 139.8819,10.0089 139.7779,9.1389 C139.6799,8.2969 140.0889,7.5829 140.6289,6.8169 L142.8439,3.6789 C142.9409,3.5379 142.9589,3.4209 142.8809,3.2749 L142.6069,2.7539 L142.7229,2.5879 L144.9109,4.1319 L144.7959,4.2979 L144.2149,4.2149 C144.0489,4.1899 143.9429,4.2429 143.8449,4.3849 L141.5839,7.5919 C140.6999,8.8489 140.6319,9.9239 141.6619,10.6499 L141.7149,10.6879 C142.7439,11.4109 143.7349,10.9869 144.6189,9.7309 L146.9089,6.4799 C146.9829,6.3759 146.9999,6.2429 146.9429,6.1359 L146.6639,5.5879 L146.7689,5.4409 L148.8949,6.9409 L148.7919,7.0879 L148.1819,7.0089 C148.0509,6.9959 147.9489,7.0429 147.8519,7.1819 L145.6259,10.3359 C145.0859,11.1059 144.5529,11.7329 143.7289,11.9219 C142.8739,12.1159 142.0079,11.8449 141.2659,11.3219 L141.1709,11.2539 Z" id="Fill-185"></path>
                                    <path d="M144.8848,14.8311 C144.3398,14.1091 144.0418,13.2521 144.2088,12.3911 C144.3728,11.5611 144.9848,11.0071 145.7368,10.4441 L148.8038,8.1371 C148.9398,8.0351 148.9938,7.9291 148.9648,7.7641 L148.8638,7.1861 L149.0258,7.0651 L150.6348,9.2031 L150.4708,9.3251 L149.9468,9.0661 C149.7958,8.9931 149.6778,9.0151 149.5428,9.1171 L146.4048,11.4741 C145.1778,12.3971 144.7838,13.4031 145.5408,14.4091 L145.5778,14.4581 C146.3348,15.4661 147.4058,15.3661 148.6338,14.4431 L151.8148,12.0521 C151.9158,11.9751 151.9738,11.8531 151.9498,11.7361 L151.8548,11.1281 L151.9988,11.0181 L153.5638,13.1001 L153.4178,13.2101 L152.8618,12.9441 C152.7398,12.8921 152.6298,12.9071 152.4948,13.0101 L149.4068,15.3311 C148.6568,15.8931 147.9548,16.3281 147.1138,16.2541 C146.2418,16.1761 145.4998,15.6511 144.9568,14.9281 L144.8848,14.8311 Z" id="Fill-187"></path>
                                    <path d="M147.3223,19.3823 C147.0283,18.5223 147.0073,17.6173 147.4313,16.8523 C147.8433,16.1113 148.5973,15.7723 149.4823,15.4713 L153.1143,14.2213 C153.2773,14.1673 153.3573,14.0833 153.3813,13.9173 L153.4643,13.3343 L153.6543,13.2653 L154.5233,15.8003 L154.3353,15.8653 L153.9113,15.4593 C153.7913,15.3423 153.6753,15.3263 153.5123,15.3803 L149.8023,16.6573 C148.3513,17.1553 147.6653,17.9873 148.0763,19.1773 L148.0933,19.2373 C148.5033,20.4293 149.5553,20.6653 151.0093,20.1663 L154.7683,18.8743 C154.8903,18.8333 154.9823,18.7343 154.9983,18.6153 L155.0923,18.0083 L155.2623,17.9483 L156.1093,20.4093 L155.9353,20.4693 L155.4873,20.0493 C155.3893,19.9573 155.2813,19.9363 155.1193,19.9953 L151.4693,21.2483 C150.5823,21.5513 149.7823,21.7503 149.0013,21.4193 C148.1963,21.0753 147.6543,20.3473 147.3573,19.4903 L147.3223,19.3823 Z" id="Fill-189"></path>
                                    <path d="M148.2266,24.4434 C148.2116,23.5364 148.4746,22.6684 149.1156,22.0714 C149.7346,21.4964 150.5566,21.4064 151.4936,21.3914 L155.3336,21.3244 C155.5036,21.3204 155.6126,21.2684 155.6836,21.1184 L155.9406,20.5874 L156.1436,20.5864 L156.1906,23.2654 L155.9866,23.2704 L155.7086,22.7484 C155.6326,22.6014 155.5246,22.5524 155.3536,22.5524 L151.4296,22.6194 C149.8916,22.6454 148.9856,23.2284 149.0076,24.4844 L149.0076,24.5484 C149.0286,25.8074 149.9556,26.3574 151.4916,26.3304 L155.4696,26.2624 C155.5986,26.2624 155.7126,26.1934 155.7666,26.0884 L156.0456,25.5404 L156.2276,25.5384 L156.2716,28.1394 L156.0896,28.1434 L155.7916,27.6014 C155.7266,27.4874 155.6296,27.4364 155.4596,27.4384 L151.5966,27.5054 C150.6566,27.5184 149.8346,27.4584 149.1986,26.9014 C148.5376,26.3284 148.2446,25.4684 148.2286,24.5614 L148.2266,24.4434 Z" id="Fill-191"></path>
                                    <path d="M147.5283,29.5596 C147.7933,28.6916 148.3093,27.9446 149.1003,27.5726 C149.8683,27.2176 150.6753,27.3796 151.5713,27.6576 L155.2453,28.7736 C155.4083,28.8196 155.5243,28.8036 155.6403,28.6836 L156.0473,28.2586 L156.2413,28.3176 L155.4633,30.8786 L155.2673,30.8176 L155.1653,30.2436 C155.1373,30.0766 155.0523,29.9946 154.8883,29.9436 L151.1343,28.8056 C149.6673,28.3576 148.6263,28.6316 148.2573,29.8356 L148.2403,29.8966 C147.8733,31.0996 148.5863,31.9056 150.0543,32.3556 L153.8593,33.5106 C153.9823,33.5496 154.1123,33.5206 154.1953,33.4346 L154.6283,33.0006 L154.8013,33.0506 L154.0453,35.5426 L153.8713,35.4886 L153.7543,34.8816 C153.7243,34.7546 153.6503,34.6746 153.4883,34.6236 L149.7963,33.5006 C148.8983,33.2266 148.1333,32.9156 147.6953,32.1936 C147.2443,31.4446 147.2303,30.5366 147.4963,29.6696 L147.5283,29.5596 Z" id="Fill-193"></path>
                                    <path d="M145.291,34.1973 C145.808,33.4523 146.531,32.9033 147.399,32.7973 C148.24,32.6963 148.956,33.1023 149.724,33.6423 L152.87,35.8433 C153.012,35.9423 153.13,35.9593 153.277,35.8813 L153.795,35.6023 L153.962,35.7203 L152.426,37.9123 L152.262,37.7983 L152.34,37.2163 C152.364,37.0503 152.31,36.9473 152.168,36.8493 L148.953,34.5963 C147.693,33.7183 146.618,33.6553 145.896,34.6863 L145.859,34.7373 C145.138,35.7693 145.567,36.7593 146.823,37.6413 L150.084,39.9223 C150.19,39.9923 150.319,40.0093 150.428,39.9513 L150.976,39.6683 L151.123,39.7753 L149.633,41.9063 L149.482,41.8053 L149.558,41.1913 C149.572,41.0613 149.526,40.9613 149.387,40.8623 L146.221,38.6463 C145.453,38.1113 144.82,37.5803 144.631,36.7563 C144.432,35.9023 144.701,35.0343 145.223,34.2943 L145.291,34.1973 Z" id="Fill-195"></path>
                                    <path d="M141.7227,37.9229 C142.4457,37.3769 143.3007,37.0759 144.1597,37.2369 C144.9927,37.4009 145.5487,38.0089 146.1147,38.7599 L148.4337,41.8209 C148.5367,41.9569 148.6427,42.0089 148.8077,41.9799 L149.3867,41.8769 L149.5077,42.0389 L147.3727,43.6539 L147.2497,43.4919 L147.5047,42.9659 C147.5777,42.8169 147.5587,42.6969 147.4547,42.5629 L145.0847,39.4299 C144.1577,38.2069 143.1527,37.8149 142.1497,38.5769 L142.0977,38.6149 C141.0947,39.3789 141.1967,40.4489 142.1237,41.6729 L144.5267,44.8449 C144.6057,44.9459 144.7257,45.0049 144.8437,44.9819 L145.4527,44.8849 L145.5587,45.0269 L143.4847,46.5989 L143.3747,46.4529 L143.6347,45.8949 C143.6897,45.7739 143.6747,45.6649 143.5717,45.5279 L141.2397,42.4479 C140.6737,41.7019 140.2377,40.9999 140.3087,40.1569 C140.3827,39.2809 140.9047,38.5419 141.6267,37.9949 L141.7227,37.9229 Z" id="Fill-197"></path>
                                    <path d="M137.1816,40.3701 C138.0366,40.0721 138.9456,40.0521 139.7136,40.4741 C140.4526,40.8831 140.7916,41.6351 141.1016,42.5221 L142.3586,46.1491 C142.4136,46.3091 142.4996,46.3941 142.6656,46.4151 L143.2456,46.4951 L143.3126,46.6861 L140.7846,47.5631 L140.7176,47.3711 L141.1226,46.9521 C141.2396,46.8301 141.2556,46.7131 141.1996,46.5541 L139.9116,42.8431 C139.4096,41.3931 138.5756,40.7091 137.3866,41.1221 L137.3236,41.1431 C136.1346,41.5561 135.9036,42.6091 136.4076,44.0611 L137.7086,47.8181 C137.7536,47.9391 137.8516,48.0301 137.9696,48.0451 L138.5776,48.1371 L138.6376,48.3101 L136.1776,49.1621 L136.1196,48.9901 L136.5386,48.5401 C136.6276,48.4411 136.6466,48.3331 136.5916,48.1731 L135.3266,44.5251 C135.0166,43.6381 134.8196,42.8391 135.1466,42.0561 C135.4896,41.2481 136.2146,40.7031 137.0686,40.4061 L137.1816,40.3701 Z" id="Fill-199"></path>
                                    <path d="M132.1113,41.2915 C133.0173,41.2705 133.8883,41.5335 134.4833,42.1725 C135.0603,42.7905 135.1533,43.6125 135.1713,44.5485 L135.2423,48.3835 C135.2453,48.5565 135.3003,48.6615 135.4513,48.7335 L135.9803,48.9905 L135.9843,49.1925 L133.3073,49.2415 L133.3043,49.0415 L133.8203,48.7635 C133.9683,48.6875 134.0193,48.5805 134.0163,48.4075 L133.9433,44.4845 C133.9143,42.9515 133.3323,42.0455 132.0723,42.0695 L132.0083,42.0695 C130.7533,42.0945 130.2053,43.0185 130.2333,44.5585 L130.3073,48.5295 C130.3113,48.6615 130.3753,48.7765 130.4853,48.8285 L131.0353,49.1045 L131.0393,49.2885 L128.4363,49.3335 L128.4343,49.1545 L128.9693,48.8555 C129.0883,48.7875 129.1383,48.6925 129.1363,48.5205 L129.0623,44.6645 C129.0443,43.7265 129.1043,42.9075 129.6563,42.2655 C130.2283,41.6035 131.0883,41.3085 131.9963,41.2925 L132.1113,41.2915 Z" id="Fill-201"></path>
                                    <path d="M126.9922,40.605 C127.8592,40.866 128.6082,41.382 128.9802,42.174 C129.3392,42.939 129.1742,43.747 128.9022,44.649 L127.7932,48.324 C127.7442,48.488 127.7632,48.603 127.8872,48.72 L128.3082,49.126 L128.2492,49.319 L125.6872,48.543 L125.7452,48.352 L126.3212,48.247 C126.4872,48.217 126.5692,48.132 126.6172,47.969 L127.7542,44.211 C128.1952,42.739 127.9222,41.698 126.7172,41.334 L126.6542,41.315 C125.4492,40.951 124.6422,41.667 124.1992,43.139 L123.0472,46.947 C123.0112,47.069 123.0392,47.201 123.1252,47.282 L123.5632,47.715 L123.5132,47.887 L121.0192,47.138 L121.0712,46.96 L121.6762,46.843 C121.8062,46.817 121.8872,46.738 121.9352,46.574 L123.0512,42.878 C123.3222,41.98 123.6322,41.218 124.3532,40.778 C125.1042,40.323 126.0122,40.31 126.8782,40.567 L126.9922,40.605 Z" id="Fill-203"></path>
                                    <path d="M122.3623,38.3828 C123.1053,38.9008 123.6563,39.6238 123.7663,40.4898 C123.8733,41.3288 123.4653,42.0458 122.9303,42.8168 L120.7383,45.9668 C120.6413,46.1058 120.6243,46.2228 120.7033,46.3718 L120.9803,46.8898 L120.8663,47.0538 L118.6683,45.5288 L118.7833,45.3638 L119.3653,45.4428 C119.5293,45.4658 119.6333,45.4078 119.7323,45.2678 L121.9683,42.0468 C122.8463,40.7868 122.9063,39.7118 121.8733,38.9938 L121.8243,38.9568 C120.7893,38.2368 119.8023,38.6698 118.9243,39.9278 L116.6563,43.1928 C116.5823,43.2988 116.5683,43.4298 116.6263,43.5368 L116.9073,44.0818 L116.8043,44.2308 L114.6693,42.7468 L114.7733,42.5968 L115.3833,42.6738 C115.5163,42.6838 115.6133,42.6368 115.7113,42.4968 L117.9143,39.3298 C118.4493,38.5588 118.9813,37.9268 119.8023,37.7328 C120.6543,37.5328 121.5213,37.8008 122.2643,38.3178 L122.3623,38.3828 Z" id="Fill-205"></path>
                                    <path d="M118.623,34.8271 C119.175,35.5491 119.476,36.4021 119.312,37.2631 C119.155,38.0951 118.548,38.6491 117.798,39.2201 L114.744,41.5461 C114.609,41.6511 114.557,41.7561 114.587,41.9201 L114.689,42.4981 L114.531,42.6211 L112.905,40.4901 L113.068,40.3691 L113.598,40.6221 C113.747,40.6951 113.863,40.6731 114.002,40.5671 L117.124,38.1931 C118.348,37.2611 118.733,36.2561 117.973,35.2561 L117.932,35.2051 C117.17,34.2051 116.098,34.3071 114.875,35.2401 L111.709,37.6501 C111.607,37.7261 111.553,37.8481 111.572,37.9671 L111.675,38.5751 L111.531,38.6811 L109.955,36.6101 L110.098,36.5011 L110.658,36.7591 C110.779,36.8121 110.887,36.7981 111.022,36.6961 L114.097,34.3571 C114.843,33.7891 115.543,33.3481 116.387,33.4191 C117.26,33.4901 118.002,34.0091 118.554,34.7321 L118.623,34.8271 Z" id="Fill-207"></path>
                                    <path d="M116.1621,30.2939 C116.4611,31.1489 116.4841,32.0569 116.0631,32.8239 C115.6571,33.5689 114.9061,33.9109 114.0201,34.2169 L110.3961,35.4909 C110.2341,35.5479 110.1511,35.6329 110.1311,35.7959 L110.0521,36.3779 L109.8581,36.4449 L108.9741,33.9179 L109.1681,33.8489 L109.5921,34.2539 C109.7111,34.3739 109.8291,34.3899 109.9891,34.3309 L113.6941,33.0329 C115.1451,32.5249 115.8241,31.6879 115.4081,30.4979 L115.3871,30.4399 C114.9731,29.2519 113.9191,29.0219 112.4681,29.5289 L108.7131,30.8429 C108.5901,30.8829 108.5021,30.9859 108.4861,31.1059 L108.3941,31.7109 L108.2251,31.7739 L107.3631,29.3179 L107.5341,29.2579 L107.9841,29.6769 C108.0841,29.7659 108.1941,29.7829 108.3541,29.7289 L112.0001,28.4509 C112.8871,28.1399 113.6861,27.9389 114.4651,28.2639 C115.2731,28.6029 115.8221,29.3279 116.1241,30.1829 L116.1621,30.2939 Z" id="Fill-209"></path>
                                    <path d="M115.2227,25.2305 C115.2457,26.1365 114.9857,27.0055 114.3477,27.6085 C113.7337,28.1855 112.9147,28.2795 111.9757,28.3015 L108.1387,28.3885 C107.9667,28.3915 107.8637,28.4475 107.7907,28.5995 L107.5367,29.1265 L107.3367,29.1315 L107.2717,26.4565 L107.4757,26.4505 L107.7537,26.9665 C107.8327,27.1175 107.9417,27.1695 108.1097,27.1625 L112.0337,27.0735 C113.5687,27.0385 114.4727,26.4545 114.4457,25.1965 L114.4427,25.1315 C114.4137,23.8715 113.4847,23.3275 111.9487,23.3635 L107.9737,23.4545 C107.8447,23.4575 107.7287,23.5225 107.6777,23.6275 L107.4037,24.1815 L107.2207,24.1845 L107.1597,21.5855 L107.3437,21.5815 L107.6427,22.1165 C107.7107,22.2305 107.8067,22.2835 107.9787,22.2775 L111.8377,22.1915 C112.7757,22.1705 113.5977,22.2265 114.2417,22.7785 C114.9027,23.3495 115.2007,24.2045 115.2207,25.1125 L115.2227,25.2305 Z" id="Fill-211"></path>
                                    <path d="M115.8945,20.105 C115.6345,20.973 115.1235,21.725 114.3325,22.1 C113.5685,22.461 112.7555,22.3 111.8575,22.027 L108.1775,20.928 C108.0135,20.882 107.8965,20.9 107.7835,21.022 L107.3775,21.449 L107.1825,21.389 L107.9475,18.824 L108.1445,18.883 L108.2495,19.459 C108.2785,19.622 108.3665,19.708 108.5275,19.756 L112.2925,20.878 C113.7635,21.316 114.8045,21.039 115.1655,19.833 L115.1815,19.772 C115.5435,18.565 114.8265,17.762 113.3525,17.32 L109.5405,16.181 C109.4175,16.145 109.2845,16.172 109.2055,16.259 L108.7735,16.696 L108.5995,16.647 L109.3445,14.152 L109.5175,14.204 L109.6385,14.807 C109.6655,14.939 109.7435,15.017 109.9055,15.064 L113.6095,16.171 C114.5075,16.44 115.2735,16.746 115.7145,17.468 C116.1695,18.218 116.1895,19.126 115.9295,19.996 L115.8945,20.105 Z" id="Fill-213"></path>
                                    <path d="M118.1084,15.4556 C117.5924,16.2016 116.8744,16.7556 116.0034,16.8696 C115.1654,16.9726 114.4464,16.5686 113.6744,16.0346 L110.5154,13.8506 C110.3774,13.7516 110.2594,13.7386 110.1114,13.8166 L109.5964,14.0936 L109.4274,13.9796 L110.9504,11.7786 L111.1184,11.8926 L111.0394,12.4756 C111.0154,12.6416 111.0734,12.7466 111.2124,12.8406 L114.4444,15.0746 C115.7084,15.9496 116.7834,16.0056 117.4984,14.9686 L117.5334,14.9156 C118.2504,13.8816 117.8154,12.8946 116.5524,12.0196 L113.2814,9.7596 C113.1774,9.6846 113.0434,9.6716 112.9384,9.7296 L112.3934,10.0136 L112.2464,9.9086 L113.7224,7.7686 L113.8724,7.8716 L113.7994,8.4816 C113.7854,8.6156 113.8344,8.7136 113.9764,8.8106 L117.1524,11.0056 C117.9244,11.5416 118.5554,12.0696 118.7524,12.8916 C118.9544,13.7436 118.6914,14.6136 118.1734,15.3616 L118.1084,15.4556 Z" id="Fill-215"></path>
                                    <path d="M121.6572,11.7114 C120.9382,12.2594 120.0842,12.5664 119.2222,12.4064 C118.3902,12.2504 117.8322,11.6444 117.2612,10.8964 L114.9282,7.8484 C114.8242,7.7124 114.7182,7.6624 114.5532,7.6934 L113.9762,7.8004 L113.8512,7.6384 L115.9772,6.0094 L116.1002,6.1714 L115.8492,6.7014 C115.7752,6.8514 115.7972,6.9694 115.9022,7.1024 L118.2872,10.2204 C119.2222,11.4394 120.2262,11.8244 121.2282,11.0604 L121.2762,11.0194 C122.2752,10.2544 122.1672,9.1834 121.2332,7.9634 L118.8162,4.8064 C118.7362,4.7034 118.6162,4.6504 118.5002,4.6714 L117.8912,4.7744 L117.7812,4.6294 L119.8482,3.0484 L119.9592,3.1904 L119.7022,3.7514 C119.6462,3.8724 119.6622,3.9824 119.7692,4.1174 L122.1122,7.1824 C122.6842,7.9294 123.1232,8.6254 123.0582,9.4704 C122.9882,10.3394 122.4702,11.0874 121.7502,11.6374 L121.6572,11.7114 Z" id="Fill-217"></path>
                                    <path d="M126.1709,9.2437 C125.3169,9.5447 124.4089,9.5727 123.6399,9.1557 C122.8979,8.7507 122.5519,8.0007 122.2399,7.1187 L120.9589,3.5007 C120.9019,3.3387 120.8149,3.2567 120.6499,3.2367 L120.0689,3.1597 L119.9989,2.9677 L122.5229,2.0747 L122.5919,2.2647 L122.1879,2.6917 C122.0739,2.8107 122.0589,2.9297 122.1149,3.0897 L123.4239,6.7867 C123.9379,8.2367 124.7759,8.9117 125.9619,8.4907 L126.0229,8.4687 C127.2079,8.0497 127.4329,6.9987 126.9239,5.5507 L125.5949,1.7997 C125.5509,1.6787 125.4519,1.5927 125.3339,1.5777 L124.7249,1.4867 L124.6639,1.3177 L127.1149,0.4477 L127.1779,0.6177 L126.7609,1.0707 C126.6719,1.1727 126.6539,1.2797 126.7119,1.4397 L127.9999,5.0767 C128.3099,5.9637 128.5159,6.7627 128.1949,7.5447 C127.8579,8.3487 127.1349,8.8997 126.2789,9.2027 L126.1709,9.2437 Z" id="Fill-219"></path>
                                    <path d="M131.3271,8.2817 C130.4191,8.2927 129.5521,8.0307 128.9511,7.3887 C128.3761,6.7697 128.2901,5.9497 128.2731,5.0127 L128.2131,1.1727 C128.2091,1.0017 128.1531,0.8947 128.0031,0.8237 L127.4741,0.5637 L127.4731,0.3607 L130.1501,0.3187 L130.1521,0.5197 L129.6331,0.7957 C129.4861,0.8727 129.4331,0.9807 129.4381,1.1517 L129.5011,5.0747 C129.5261,6.6117 130.1061,7.5217 131.3671,7.5017 L131.4291,7.4987 C132.6881,7.4797 133.2401,6.5517 133.2151,5.0157 L133.1501,1.0367 C133.1471,0.9077 133.0821,0.7907 132.9731,0.7417 L132.4241,0.4617 L132.4221,0.2817 L135.0251,0.2377 L135.0291,0.4197 L134.4881,0.7157 C134.3731,0.7797 134.3211,0.8787 134.3241,1.0517 L134.3891,4.9107 C134.4021,5.8487 134.3401,6.6727 133.7871,7.3097 C133.2121,7.9707 132.3501,8.2637 131.4431,8.2777 L131.3271,8.2817 Z" id="Fill-221"></path>
                                    <path d="M186.1094,8.0161 L185.9034,6.2101 L186.0884,6.2031 C186.1654,6.3301 186.4474,6.7801 186.9934,7.1061 C187.4104,7.3521 187.8294,7.5071 188.3364,7.5791 C189.2324,7.7091 190.1254,7.2861 190.2414,6.4731 C190.4894,4.7431 186.4124,4.4691 186.7584,2.0331 C186.9554,0.6611 188.3254,0.1991 189.7124,0.3951 C190.1534,0.4591 190.5844,0.5971 191.0354,0.7701 C191.1264,0.8051 191.2634,0.8241 191.3434,0.7151 L191.4804,0.7371 L191.6794,2.3701 L191.4684,2.3401 C191.4684,2.3401 191.4514,2.3051 191.4174,2.2461 C191.2144,1.9241 190.8494,1.6151 190.6514,1.5011 C190.3814,1.3441 189.9784,1.2321 189.7224,1.1951 C189.0164,1.0961 188.1384,1.2821 188.0254,2.0841 C187.8164,3.5381 191.7794,4.0771 191.5524,6.3371 C191.4294,7.5811 190.2024,8.6981 188.0914,8.3951 C187.5424,8.3191 187.0024,8.1551 186.5054,7.9541 C186.3124,7.8711 186.2264,8.0311 186.2264,8.0311 L186.1094,8.0161 Z" id="Fill-223"></path>
                                    <path d="M189.9678,8.4575 L190.1838,6.6535 L190.3668,6.6915 C190.4138,6.8355 190.5808,7.3355 191.0368,7.7795 C191.3848,8.1165 191.7578,8.3645 192.2328,8.5515 C193.0768,8.8865 194.0428,8.6795 194.3428,7.9175 C194.9848,6.2905 191.0828,5.0805 191.9848,2.7895 C192.4958,1.5005 193.9348,1.3695 195.2348,1.8825 C195.6488,2.0475 196.0398,2.2805 196.4398,2.5515 C196.5178,2.6075 196.6478,2.6595 196.7508,2.5735 L196.8808,2.6235 L196.6918,4.2565 L196.4928,4.1795 C196.4928,4.1795 196.4848,4.1435 196.4658,4.0775 C196.3418,3.7205 196.0608,3.3335 195.8948,3.1745 C195.6678,2.9595 195.3008,2.7575 195.0638,2.6645 C194.3978,2.3985 193.5008,2.3815 193.2038,3.1335 C192.6638,4.5025 196.3948,5.9405 195.6488,8.0905 C195.2398,9.2705 193.7888,10.0715 191.8048,9.2885 C191.2878,9.0855 190.8048,8.8015 190.3668,8.4905 C190.1958,8.3685 190.0758,8.5015 190.0758,8.5015 L189.9678,8.4575 Z" id="Fill-225"></path>
                                    <path d="M193.6211,9.7861 L194.2501,8.0801 L194.4171,8.1551 C194.4301,8.3101 194.4781,8.8361 194.8181,9.3751 C195.0841,9.7771 195.3871,10.1071 195.8071,10.3981 C196.5501,10.9151 197.5351,10.9391 198.0041,10.2661 C199.0051,8.8311 195.4851,6.7571 196.8911,4.7361 C197.6851,3.5991 199.1151,3.8021 200.2641,4.6021 C200.6291,4.8551 200.9531,5.1741 201.2791,5.5301 C201.3441,5.6021 201.4591,5.6811 201.5781,5.6211 L201.6921,5.7011 L201.1331,7.2491 L200.9571,7.1261 C200.9571,7.1261 200.9571,7.0901 200.9531,7.0201 C200.9171,6.6441 200.7311,6.2001 200.6041,6.0091 C200.4351,5.7491 200.1251,5.4681 199.9161,5.3211 C199.3291,4.9111 198.4601,4.6851 197.9981,5.3501 C197.1571,6.5571 200.4571,8.8161 199.2341,10.7331 C198.5681,11.7881 196.9701,12.2321 195.2211,11.0161 C194.7661,10.7001 194.3581,10.3121 194.0041,9.9091 C193.8671,9.7481 193.7171,9.8531 193.7171,9.8531 L193.6211,9.7861 Z" id="Fill-227"></path>
                                    <path d="M196.876,11.9219 L197.879,10.4029 L198.023,10.5169 C198,10.6659 197.926,11.1929 198.133,11.7939 C198.298,12.2469 198.52,12.6399 198.863,13.0199 C199.467,13.6939 200.422,13.9409 201.033,13.3929 C202.336,12.2249 199.385,9.3979 201.219,7.7529 C202.251,6.8269 203.598,7.3549 204.532,8.3949 C204.826,8.7289 205.072,9.1109 205.308,9.5319 C205.355,9.6179 205.448,9.7199 205.577,9.6909 L205.67,9.7939 L204.772,11.1719 L204.629,11.0129 C204.629,11.0129 204.638,10.9759 204.65,10.9089 C204.7,10.5329 204.619,10.0609 204.541,9.8449 C204.438,9.5529 204.199,9.2069 204.028,9.0149 C203.551,8.4839 202.758,8.0609 202.153,8.6049 C201.057,9.5909 203.753,12.5449 202.126,14.1329 C201.232,15.0069 199.574,15.0749 198.15,13.4849 C197.778,13.0729 197.472,12.6029 197.219,12.1299 C197.124,11.9439 196.955,12.0059 196.955,12.0059 L196.876,11.9219 Z" id="Fill-229"></path>
                                    <path d="M199.5498,14.7388 L200.8738,13.4938 L200.9888,13.6388 C200.9298,13.7798 200.7398,14.2738 200.8048,14.9048 C200.8598,15.3848 200.9848,15.8148 201.2308,16.2648 C201.6658,17.0608 202.5368,17.5208 203.2568,17.1258 C204.7928,16.2868 202.5688,12.8598 204.7318,11.6808 C205.9488,11.0168 207.1378,11.8388 207.8078,13.0668 C208.0208,13.4578 208.1708,13.8878 208.3018,14.3498 C208.3278,14.4438 208.3948,14.5658 208.5288,14.5658 L208.5958,14.6858 L207.4038,15.8208 L207.3028,15.6338 C207.3028,15.6338 207.3208,15.5998 207.3458,15.5358 C207.4838,15.1828 207.5108,14.7048 207.4858,14.4798 C207.4498,14.1708 207.2978,13.7798 207.1738,13.5538 C206.8308,12.9268 206.1568,12.3368 205.4478,12.7248 C204.1558,13.4268 206.0978,16.9238 204.1528,18.0958 C203.0808,18.7398 201.4518,18.4268 200.4298,16.5558 C200.1638,16.0648 199.9748,15.5388 199.8358,15.0198 C199.7858,14.8178 199.6058,14.8428 199.6058,14.8428 L199.5498,14.7388 Z" id="Fill-231"></path>
                                    <path d="M201.5088,18.1118 L203.0878,17.2088 L203.1678,17.3748 C203.0798,17.4988 202.7778,17.9348 202.6938,18.5648 C202.6368,19.0438 202.6598,19.4908 202.7928,19.9868 C203.0308,20.8618 203.7718,21.5098 204.5638,21.2978 C206.2518,20.8368 204.8858,16.9848 207.2628,16.3408 C208.6028,15.9768 209.5688,17.0528 209.9358,18.4018 C210.0518,18.8338 210.0978,19.2858 210.1188,19.7668 C210.1218,19.8628 210.1588,19.9978 210.2898,20.0288 L210.3238,20.1618 L208.9008,20.9908 L208.8468,20.7858 C208.8468,20.7858 208.8698,20.7578 208.9108,20.7028 C209.1268,20.3898 209.2678,19.9318 209.2928,19.7048 C209.3298,19.3938 209.2748,18.9758 209.2048,18.7318 C209.0198,18.0408 208.4998,17.3098 207.7188,17.5208 C206.2978,17.9088 207.3758,21.7598 205.2078,22.4458 C204.0168,22.8248 202.5038,22.1428 201.9468,20.0838 C201.8008,19.5478 201.7378,18.9898 201.7248,18.4518 C201.7248,18.2428 201.5428,18.2248 201.5428,18.2248 L201.5088,18.1118 Z" id="Fill-233"></path>
                                    <path d="M202.627,21.8228 L204.371,21.3038 L204.407,21.4848 C204.293,21.5858 203.901,21.9378 203.676,22.5308 C203.51,22.9858 203.431,23.4258 203.445,23.9378 C203.477,24.8438 204.05,25.6438 204.869,25.6158 C206.616,25.5548 206.169,21.4968 208.628,21.4088 C210.014,21.3628 210.708,22.6318 210.757,24.0268 C210.772,24.4748 210.712,24.9218 210.622,25.3948 C210.606,25.4938 210.61,25.6318 210.729,25.6888 L210.733,25.8308 L209.162,26.3098 L209.154,26.0988 C209.154,26.0988 209.184,26.0758 209.236,26.0298 C209.516,25.7768 209.756,25.3608 209.836,25.1478 C209.941,24.8558 209.981,24.4348 209.974,24.1808 C209.949,23.4668 209.608,22.6378 208.801,22.6638 C207.33,22.7178 207.5,26.7068 205.233,26.8848 C203.989,26.9808 202.675,25.9698 202.601,23.8408 C202.582,23.2838 202.648,22.7288 202.756,22.2008 C202.804,21.9978 202.631,21.9388 202.631,21.9388 L202.627,21.8228 Z" id="Fill-235"></path>
                                    <path d="M202.8672,25.7192 L204.6802,25.6162 L204.6792,25.8022 C204.5442,25.8712 204.0792,26.1272 203.7242,26.6542 C203.4582,27.0572 203.2772,27.4672 203.1762,27.9692 C202.9972,28.8582 203.3672,29.7712 204.1742,29.9302 C205.8882,30.2742 206.3882,26.2222 208.8042,26.7072 C210.1632,26.9822 210.5462,28.3762 210.2712,29.7462 C210.1832,30.1832 210.0212,30.6082 209.8242,31.0472 C209.7832,31.1362 209.7562,31.2742 209.8572,31.3612 L209.8302,31.4972 L208.1892,31.6002 L208.2312,31.3902 C208.2312,31.3902 208.2672,31.3762 208.3282,31.3452 C208.6592,31.1622 208.9892,30.8142 209.1152,30.6222 C209.2852,30.3632 209.4222,29.9682 209.4712,29.7172 C209.6142,29.0142 209.4762,28.1272 208.6812,27.9692 C207.2372,27.6762 206.4782,31.6062 204.2332,31.2522 C203.0012,31.0542 201.9552,29.7692 202.3762,27.6762 C202.4842,27.1322 202.6772,26.6072 202.9072,26.1162 C202.9982,25.9322 202.8442,25.8342 202.8442,25.8342 L202.8672,25.7192 Z" id="Fill-237"></path>
                                    <path d="M202.2061,29.5479 L203.9961,29.8719 L203.9501,30.0479 C203.8031,30.0839 203.2921,30.2269 202.8231,30.6539 C202.4711,30.9859 202.1991,31.3439 201.9851,31.8069 C201.6031,32.6309 201.7551,33.6019 202.5021,33.9499 C204.0881,34.6819 205.5161,30.8519 207.7521,31.8869 C209.0141,32.4669 209.0611,33.9109 208.4761,35.1769 C208.2871,35.5859 208.0331,35.9619 207.7381,36.3419 C207.6811,36.4229 207.6211,36.5469 207.7011,36.6519 L207.6441,36.7809 L206.0221,36.5019 L206.1091,36.3059 C206.1091,36.3059 206.1471,36.2999 206.2151,36.2849 C206.5811,36.1829 206.9821,35.9219 207.1491,35.7629 C207.3761,35.5529 207.6001,35.1959 207.7061,34.9649 C208.0051,34.3139 208.0791,33.4229 207.3421,33.0819 C206.0061,32.4659 204.3581,36.1079 202.2571,35.2439 C201.1011,34.7719 200.3811,33.2759 201.2731,31.3379 C201.5071,30.8329 201.8181,30.3689 202.1531,29.9459 C202.2851,29.7829 202.1561,29.6559 202.1561,29.6559 L202.2061,29.5479 Z" id="Fill-239"></path>
                                    <path d="M200.667,33.1338 L202.334,33.8618 L202.248,34.0218 C202.096,34.0288 201.566,34.0478 201.013,34.3558 C200.593,34.5968 200.246,34.8798 199.932,35.2818 C199.369,35.9938 199.293,36.9758 199.939,37.4848 C201.313,38.5618 203.584,35.1708 205.522,36.6888 C206.611,37.5448 206.328,38.9598 205.467,40.0608 C205.189,40.4128 204.854,40.7188 204.481,41.0218 C204.404,41.0838 204.318,41.1928 204.373,41.3158 L204.285,41.4248 L202.772,40.7808 L202.904,40.6108 C202.904,40.6108 202.943,40.6128 203.013,40.6128 C203.389,40.5978 203.84,40.4388 204.039,40.3228 C204.311,40.1728 204.607,39.8758 204.766,39.6728 C205.208,39.1118 205.482,38.2588 204.847,37.7588 C203.689,36.8488 201.246,40.0158 199.399,38.6888 C198.387,37.9598 198.03,36.3398 199.348,34.6638 C199.689,34.2258 200.099,33.8428 200.522,33.5098 C200.69,33.3828 200.595,33.2268 200.595,33.2268 L200.667,33.1338 Z" id="Fill-241"></path>
                                    <path d="M198.3516,36.2656 L199.8096,37.3536 L199.6876,37.4896 C199.5396,37.4586 199.0186,37.3546 198.4086,37.5276 C197.9446,37.6696 197.5426,37.8676 197.1426,38.1876 C196.4356,38.7546 196.1336,39.6926 196.6446,40.3346 C197.7396,41.6996 200.7296,38.9126 202.2686,40.8366 C203.1356,41.9186 202.5336,43.2346 201.4396,44.1076 C201.0906,44.3866 200.6946,44.6086 200.2636,44.8196 C200.1716,44.8606 200.0666,44.9486 200.0876,45.0806 L199.9806,45.1676 L198.6526,44.1926 L198.8206,44.0596 C198.8206,44.0596 198.8566,44.0706 198.9216,44.0876 C199.2946,44.1566 199.7696,44.1056 199.9926,44.0366 C200.2906,43.9496 200.6486,43.7306 200.8496,43.5706 C201.4076,43.1246 201.8726,42.3576 201.3646,41.7226 C200.4446,40.5736 197.3426,43.0986 195.8466,41.3816 C195.0246,40.4406 195.0516,38.7786 196.7156,37.4496 C197.1506,37.0996 197.6366,36.8246 198.1256,36.5946 C198.3166,36.5126 198.2596,36.3396 198.2596,36.3396 L198.3516,36.2656 Z" id="Fill-243"></path>
                                    <path d="M195.3867,38.7734 L196.5537,40.1694 L196.4047,40.2734 C196.2687,40.2104 195.7847,39.9864 195.1517,40.0194 C194.6687,40.0444 194.2327,40.1454 193.7697,40.3634 C192.9487,40.7524 192.4387,41.5944 192.7887,42.3374 C193.5397,43.9224 197.0897,41.8974 198.1447,44.1244 C198.7357,45.3794 197.8497,46.5184 196.5837,47.1154 C196.1797,47.3084 195.7427,47.4344 195.2737,47.5354 C195.1787,47.5584 195.0537,47.6174 195.0437,47.7524 L194.9187,47.8094 L193.8537,46.5574 L194.0457,46.4624 C194.0457,46.4624 194.0797,46.4834 194.1427,46.5144 C194.4857,46.6694 194.9637,46.7274 195.1927,46.7144 C195.5007,46.6954 195.9007,46.5674 196.1317,46.4564 C196.7777,46.1484 197.4067,45.5104 197.0577,44.7764 C196.4337,43.4494 192.8277,45.1854 191.7677,43.1724 C191.1877,42.0694 191.5937,40.4604 193.5237,39.5474 C194.0247,39.3104 194.5627,39.1514 195.0877,39.0444 C195.2967,39.0044 195.2797,38.8224 195.2797,38.8224 L195.3867,38.7734 Z" id="Fill-245"></path>
                                    <path d="M191.9199,40.5332 L192.7319,42.1592 L192.5609,42.2292 C192.4429,42.1362 192.0249,41.8072 191.3989,41.6892 C190.9249,41.6032 190.4779,41.5992 189.9769,41.7062 C189.0879,41.8942 188.3959,42.5962 188.5689,43.3972 C188.9279,45.1112 192.8519,43.9682 193.3589,46.3772 C193.6449,47.7332 192.5159,48.6392 191.1489,48.9272 C190.7109,49.0182 190.2559,49.0372 189.7749,49.0302 C189.6759,49.0302 189.5409,49.0582 189.5029,49.1842 L189.3689,49.2152 L188.6249,47.7452 L188.8319,47.7052 C188.8319,47.7052 188.8589,47.7282 188.9129,47.7752 C189.2129,48.0062 189.6599,48.1722 189.8869,48.2092 C190.1929,48.2662 190.6109,48.2362 190.8619,48.1792 C191.5609,48.0332 192.3209,47.5582 192.1529,46.7632 C191.8509,45.3212 187.9429,46.1802 187.3799,43.9742 C187.0689,42.7652 187.8379,41.2962 189.9289,40.8532 C190.4689,40.7412 191.0289,40.7092 191.5699,40.7272 C191.7769,40.7402 191.8049,40.5572 191.8049,40.5572 L191.9199,40.5332 Z" id="Fill-247"></path>
                                    <path d="M188.1289,41.439 L188.5469,43.211 L188.3649,43.24 C188.2729,43.119 187.9409,42.708 187.3569,42.447 C186.9159,42.256 186.4789,42.147 185.9679,42.139 C185.0619,42.117 184.2279,42.645 184.2089,43.464 C184.1679,45.215 188.2509,44.996 188.1959,47.463 C188.1619,48.844 186.8579,49.468 185.4599,49.438 C185.0129,49.425 184.5669,49.341 184.0979,49.223 C184.0039,49.202 183.8649,49.199 183.7989,49.315 L183.6599,49.312 L183.2699,47.711 L183.4829,47.719 C183.4829,47.719 183.5029,47.749 183.5449,47.803 C183.7839,48.098 184.1839,48.362 184.3949,48.452 C184.6809,48.578 185.0959,48.641 185.3519,48.646 C186.0649,48.662 186.9159,48.37 186.9339,47.56 C186.9679,46.091 182.9669,46.031 182.9209,43.753 C182.8949,42.507 183.9829,41.249 186.1139,41.3 C186.6679,41.313 187.2209,41.411 187.7419,41.549 C187.9429,41.608 188.0109,41.436 188.0109,41.436 L188.1289,41.439 Z" id="Fill-249"></path>
                                    <path d="M184.2363,41.4614 L184.2313,43.2784 L184.0493,43.2624 C183.9863,43.1274 183.7583,42.6474 183.2533,42.2614 C182.8673,41.9734 182.4693,41.7704 181.9713,41.6394 C181.0963,41.4094 180.1653,41.7284 179.9563,42.5224 C179.5113,44.2144 183.5293,44.9464 182.9063,47.3304 C182.5563,48.6714 181.1423,48.9744 179.7913,48.6204 C179.3583,48.5044 178.9433,48.3214 178.5163,48.0984 C178.4303,48.0524 178.2953,48.0184 178.2043,48.1154 L178.0703,48.0774 L178.0603,46.4334 L178.2663,46.4864 C178.2663,46.4864 178.2783,46.5234 178.3053,46.5884 C178.4703,46.9254 178.7983,47.2774 178.9823,47.4134 C179.2303,47.6004 179.6193,47.7584 179.8683,47.8224 C180.5583,48.0064 181.4523,47.9184 181.6563,47.1344 C182.0293,45.7104 178.1553,44.7284 178.6363,42.5074 C178.9003,41.2864 180.2483,40.3164 182.3113,40.8564 C182.8453,40.9964 183.3623,41.2214 183.8343,41.4764 C184.0163,41.5804 184.1233,41.4314 184.1233,41.4314 L184.2363,41.4614 Z" id="Fill-251"></path>
                                    <path d="M180.4434,40.582 L180.0214,42.351 L179.8444,42.293 C179.8174,42.144 179.7064,41.625 179.3024,41.137 C178.9924,40.764 178.6514,40.472 178.1994,40.231 C177.4004,39.806 176.4194,39.899 176.0334,40.626 C175.2094,42.17 178.9524,43.811 177.7954,45.987 C177.1444,47.208 175.6994,47.177 174.4654,46.52 C174.0724,46.311 173.7094,46.034 173.3464,45.72 C173.2714,45.657 173.1504,45.59 173.0374,45.665 L172.9144,45.603 L173.2844,43.997 L173.4724,44.095 C173.4724,44.095 173.4744,44.133 173.4904,44.201 C173.5724,44.572 173.8074,44.987 173.9554,45.163 C174.1564,45.401 174.4994,45.642 174.7224,45.764 C175.3524,46.099 176.2444,46.223 176.6224,45.509 C177.3164,44.208 173.7694,42.357 174.7524,40.308 C175.2924,39.18 176.8264,38.546 178.7094,39.547 C179.1984,39.811 179.6474,40.145 180.0484,40.505 C180.2034,40.646 180.3394,40.525 180.3394,40.525 L180.4434,40.582 Z" id="Fill-253"></path>
                                    <path d="M176.9668,38.8467 L176.1498,40.4717 L175.9898,40.3767 C175.9978,40.2237 176.0088,39.6957 175.7298,39.1227 C175.5128,38.6917 175.2478,38.3307 174.8628,37.9937 C174.1818,37.3937 173.2048,37.2607 172.6648,37.8777 C171.5088,39.1937 174.7758,41.6517 173.1478,43.5017 C172.2328,44.5427 170.8338,44.1807 169.7848,43.2577 C169.4488,42.9617 169.1588,42.6127 168.8768,42.2197 C168.8208,42.1407 168.7168,42.0507 168.5898,42.0967 L168.4868,42.0047 L169.2158,40.5297 L169.3748,40.6677 C169.3748,40.6677 169.3688,40.7057 169.3648,40.7737 C169.3618,41.1537 169.4978,41.6147 169.5978,41.8167 C169.7388,42.0967 170.0168,42.4107 170.2098,42.5797 C170.7448,43.0527 171.5828,43.3757 172.1168,42.7677 C173.0898,41.6607 170.0638,39.0437 171.4888,37.2737 C172.2718,36.3007 173.9118,36.0377 175.5168,37.4457 C175.9318,37.8097 176.2908,38.2427 176.6018,38.6807 C176.7178,38.8567 176.8788,38.7707 176.8788,38.7707 L176.9668,38.8467 Z" id="Fill-255"></path>
                                    <path d="M173.9727,36.3584 L172.8017,37.7514 L172.6717,37.6234 C172.7107,37.4764 172.8427,36.9624 172.7037,36.3434 C172.5907,35.8744 172.4167,35.4604 172.1207,35.0444 C171.5937,34.3034 170.6737,33.9534 170.0037,34.4284 C168.5797,35.4414 171.1947,38.5834 169.1847,40.0124 C168.0547,40.8164 166.7777,40.1384 165.9647,39.0004 C165.7087,38.6354 165.5097,38.2274 165.3237,37.7834 C165.2857,37.6934 165.2047,37.5804 165.0707,37.5954 L164.9907,37.4834 L166.0387,36.2134 L166.1637,36.3864 C166.1637,36.3864 166.1497,36.4244 166.1297,36.4884 C166.0387,36.8564 166.0647,37.3334 166.1187,37.5574 C166.1917,37.8624 166.3887,38.2304 166.5357,38.4394 C166.9507,39.0224 167.6917,39.5284 168.3527,39.0594 C169.5517,38.2054 167.2047,34.9644 169.0037,33.5704 C169.9897,32.8024 171.6427,32.9204 172.8787,34.6584 C173.2027,35.1104 173.4527,35.6134 173.6547,36.1114 C173.7277,36.3094 173.9047,36.2644 173.9047,36.2644 L173.9727,36.3584 Z" id="Fill-257"></path>
                                    <path d="M171.626,33.2451 L170.166,34.3291 L170.066,34.1731 C170.141,34.0411 170.388,33.5721 170.396,32.9381 C170.396,32.4531 170.321,32.0111 170.131,31.5381 C169.791,30.6971 168.98,30.1401 168.217,30.4501 C166.598,31.1001 168.408,34.7621 166.125,35.6871 C164.841,36.2061 163.753,35.2531 163.231,33.9581 C163.063,33.5411 162.965,33.0991 162.888,32.6241 C162.87,32.5281 162.818,32.4011 162.687,32.3841 L162.636,32.2551 L163.948,31.2651 L164.027,31.4601 C164.027,31.4601 164.006,31.4951 163.973,31.5551 C163.797,31.8911 163.713,32.3611 163.713,32.5921 C163.713,32.9011 163.817,33.3071 163.914,33.5411 C164.182,34.2071 164.782,34.8711 165.535,34.5661 C166.899,34.0161 165.371,30.3191 167.441,29.3801 C168.578,28.8621 170.161,29.3631 170.959,31.3411 C171.167,31.8541 171.295,32.4011 171.373,32.9341 C171.4,33.1401 171.583,33.1361 171.583,33.1361 L171.626,33.2451 Z" id="Fill-259"></path>
                                    <path d="M170.0723,29.6899 L168.4023,30.4089 L168.3433,30.2349 C168.4423,30.1239 168.7943,29.7239 168.9483,29.1079 C169.0593,28.6389 169.0873,28.1899 169.0103,27.6849 C168.8743,26.7909 168.2143,26.0619 167.4013,26.1839 C165.6743,26.4489 166.5933,30.4239 164.1583,30.7959 C162.7853,31.0059 161.9533,29.8279 161.7413,28.4479 C161.6733,28.0029 161.6793,27.5519 161.7153,27.0709 C161.7203,26.9729 161.6993,26.8349 161.5743,26.7909 L161.5523,26.6539 L163.0603,25.9949 L163.0933,26.2059 C163.0933,26.2059 163.0623,26.2289 163.0153,26.2789 C162.7673,26.5669 162.5763,27.0059 162.5253,27.2279 C162.4533,27.5319 162.4623,27.9489 162.5023,28.2039 C162.6093,28.9089 163.0423,29.6929 163.8433,29.5749 C165.2953,29.3519 164.6623,25.4009 166.8923,24.9679 C168.1193,24.7269 169.5433,25.5789 169.8623,27.6849 C169.9453,28.2339 169.9453,28.7939 169.8983,29.3319 C169.8763,29.5369 170.0533,29.5779 170.0533,29.5779 L170.0723,29.6899 Z" id="Fill-261"></path>
                                    <path d="M169.3779,25.8496 L167.5879,26.1656 L167.5689,25.9846 C167.6939,25.9006 168.1259,25.5886 168.4159,25.0256 C168.6339,24.5916 168.7629,24.1636 168.8019,23.6546 C168.8749,22.7476 168.3979,21.8866 167.5789,21.8226 C165.8349,21.6826 165.8209,25.7736 163.3639,25.5776 C161.9809,25.4676 161.4349,24.1276 161.5429,22.7366 C161.5799,22.2876 161.6899,21.8476 161.8319,21.3876 C161.8609,21.2926 161.8749,21.1566 161.7619,21.0826 L161.7729,20.9436 L163.3929,20.6446 L163.3749,20.8556 C163.3749,20.8556 163.3399,20.8756 163.2839,20.9136 C162.9789,21.1376 162.6909,21.5186 162.5889,21.7266 C162.4489,22.0066 162.3629,22.4126 162.3419,22.6686 C162.2869,23.3806 162.5269,24.2456 163.3349,24.3126 C164.8029,24.4256 165.0859,20.4376 167.3589,20.5206 C168.6079,20.5666 169.8029,21.7216 169.6329,23.8476 C169.5899,24.4006 169.4609,24.9476 169.2899,25.4566 C169.2229,25.6556 169.3869,25.7336 169.3869,25.7336 L169.3779,25.8496 Z" id="Fill-263"></path>
                                    <path d="M169.5781,21.9668 L167.7621,21.8618 L167.7891,21.6798 C167.9291,21.6258 168.4201,21.4248 168.8341,20.9438 C169.1421,20.5718 169.3701,20.1848 169.5271,19.6958 C169.8061,18.8338 169.5411,17.8848 168.7601,17.6338 C167.0941,17.0938 166.1361,21.0658 163.7911,20.3078 C162.4691,19.8798 162.2481,18.4528 162.6801,17.1228 C162.8161,16.6958 163.0251,16.2938 163.2721,15.8808 C163.3201,15.7948 163.3641,15.6638 163.2721,15.5658 L163.3161,15.4358 L164.9581,15.5188 L164.8931,15.7198 C164.8931,15.7198 164.8561,15.7298 164.7921,15.7578 C164.4431,15.8978 164.0751,16.2068 163.9271,16.3818 C163.7271,16.6218 163.5471,16.9998 163.4691,17.2438 C163.2501,17.9248 163.2851,18.8218 164.0571,19.0708 C165.4571,19.5248 166.6571,15.7088 168.8491,16.3158 C170.0541,16.6478 170.9461,18.0468 170.2911,20.0778 C170.1191,20.6068 169.8661,21.1108 169.5831,21.5648 C169.4731,21.7438 169.6131,21.8568 169.6131,21.8568 L169.5781,21.9668 Z" id="Fill-265"></path>
                                    <path d="M170.6689,18.2485 L168.9279,17.7255 L168.9939,17.5555 C169.1429,17.5355 169.6679,17.4535 170.1819,17.0765 C170.5709,16.7875 170.8789,16.4655 171.1429,16.0275 C171.6169,15.2515 171.5759,14.2675 170.8729,13.8435 C169.3779,12.9335 167.5269,16.5775 165.4219,15.2975 C164.2379,14.5795 164.3509,13.1375 165.0759,11.9445 C165.3089,11.5605 165.6039,11.2145 165.9369,10.8705 C166.0089,10.7985 166.0809,10.6805 166.0139,10.5645 L166.0829,10.4455 L167.6639,10.9065 L167.5529,11.0895 C167.5529,11.0895 167.5159,11.0895 167.4479,11.0995 C167.0739,11.1585 166.6439,11.3715 166.4629,11.5115 C166.2099,11.6975 165.9499,12.0235 165.8159,12.2435 C165.4479,12.8535 165.2739,13.7345 165.9649,14.1555 C167.2259,14.9195 169.2729,11.4835 171.2649,12.5825 C172.3609,13.1845 172.9059,14.7505 171.7979,16.5745 C171.5109,17.0495 171.1489,17.4775 170.7689,17.8585 C170.6189,18.0045 170.7309,18.1475 170.7309,18.1475 L170.6689,18.2485 Z" id="Fill-267"></path>
                                    <path d="M172.5957,14.8638 L171.0207,13.9568 L171.1247,13.8058 C171.2767,13.8198 171.8027,13.8628 172.3907,13.6138 C172.8337,13.4198 173.2097,13.1768 173.5677,12.8108 C174.2047,12.1668 174.3907,11.1988 173.8057,10.6238 C172.5577,9.3958 169.9227,12.5198 168.1647,10.7908 C167.1747,9.8198 167.6167,8.4448 168.5957,7.4458 C168.9087,7.1258 169.2787,6.8578 169.6817,6.5988 C169.7637,6.5448 169.8627,6.4458 169.8237,6.3198 L169.9197,6.2218 L171.3527,7.0308 L171.2027,7.1828 C171.2027,7.1828 171.1657,7.1738 171.0977,7.1668 C170.7197,7.1408 170.2517,7.2508 170.0407,7.3428 C169.7577,7.4668 169.4267,7.7258 169.2477,7.9068 C168.7467,8.4178 168.3767,9.2348 168.9547,9.8018 C170.0037,10.8368 172.7867,7.9608 174.4747,9.4858 C175.4037,10.3228 175.5747,11.9728 174.0777,13.4938 C173.6907,13.8908 173.2397,14.2258 172.7827,14.5098 C172.6007,14.6138 172.6787,14.7808 172.6787,14.7808 L172.5957,14.8638 Z" id="Fill-269"></path>
                                    <path d="M175.2549,12.0063 L173.9279,10.7623 L174.0659,10.6383 C174.2089,10.6873 174.7129,10.8493 175.3419,10.7453 C175.8169,10.6583 176.2359,10.5053 176.6709,10.2353 C177.4369,9.7523 177.8439,8.8523 177.4059,8.1563 C176.4739,6.6803 173.1919,9.1103 171.8769,7.0273 C171.1399,5.8533 171.8839,4.6143 173.0659,3.8703 C173.4449,3.6313 173.8659,3.4563 174.3179,3.2963 C174.4119,3.2623 174.5289,3.1873 174.5219,3.0563 L174.6369,2.9823 L175.8459,4.1013 L175.6639,4.2123 C175.6639,4.2123 175.6299,4.1953 175.5659,4.1753 C175.2039,4.0623 174.7249,4.0623 174.4989,4.1053 C174.1929,4.1563 173.8129,4.3353 173.5949,4.4683 C172.9899,4.8513 172.4429,5.5623 172.8759,6.2463 C173.6589,7.4923 177.0259,5.3353 178.3179,7.2053 C179.0279,8.2333 178.8169,9.8813 177.0099,11.0143 C176.5419,11.3103 176.0259,11.5313 175.5169,11.7053 C175.3169,11.7663 175.3529,11.9443 175.3529,11.9443 L175.2549,12.0063 Z" id="Fill-271"></path>
                                    <path d="M178.4893,9.8452 L177.4863,8.3272 L177.6473,8.2402 C177.7763,8.3192 178.2293,8.5942 178.8643,8.6372 C179.3463,8.6642 179.7923,8.6122 180.2773,8.4482 C181.1343,8.1552 181.7363,7.3752 181.4723,6.5992 C180.9093,4.9442 177.1493,6.5482 176.3573,4.2152 C175.9113,2.9052 176.9223,1.8702 178.2453,1.4232 C178.6683,1.2762 179.1203,1.2032 179.5973,1.1552 C179.6943,1.1412 179.8273,1.0982 179.8463,0.9682 L179.9793,0.9222 L180.8963,2.2882 L180.6933,2.3582 C180.6933,2.3582 180.6633,2.3352 180.6053,2.2992 C180.2793,2.1032 179.8133,1.9912 179.5843,1.9792 C179.2743,1.9612 178.8633,2.0442 178.6213,2.1262 C177.9453,2.3582 177.2463,2.9222 177.5063,3.6902 C177.9833,5.0812 181.7603,3.7612 182.5813,5.8852 C183.0333,7.0492 182.4473,8.6012 180.4263,9.2872 C179.9013,9.4672 179.3473,9.5652 178.8123,9.6112 C178.6043,9.6272 178.5973,9.8102 178.5973,9.8102 L178.4893,9.8452 Z" id="Fill-273"></path>
                                    <path d="M182.124,8.4985 L181.496,6.7905 L181.676,6.7435 C181.78,6.8485 182.159,7.2185 182.767,7.4065 C183.229,7.5425 183.676,7.5955 184.184,7.5485 C185.088,7.4565 185.852,6.8355 185.773,6.0185 C185.602,4.2755 181.577,4.9825 181.336,2.5315 C181.202,1.1515 182.421,0.3775 183.812,0.2385 C184.258,0.1995 184.711,0.2275 185.189,0.2905 C185.287,0.3005 185.426,0.2865 185.478,0.1635 L185.617,0.1505 L186.195,1.6905 L185.981,1.7095 C185.981,1.7095 185.959,1.6805 185.91,1.6325 C185.637,1.3695 185.21,1.1555 184.989,1.0905 C184.689,1.0015 184.273,0.9895 184.017,1.0155 C183.305,1.0845 182.497,1.4755 182.573,2.2805 C182.72,3.7455 186.698,3.3245 187.016,5.5775 C187.189,6.8115 186.263,8.1895 184.141,8.3975 C183.587,8.4505 183.028,8.4205 182.495,8.3445 C182.288,8.3105 182.243,8.4865 182.243,8.4865 L182.124,8.4985 Z" id="Fill-275"></path>
                                </g>
                            </g>
                        </g>
                    </g>
                </g>
            </g>
        </g>
    </g>
</svg>