
<svg width="1431px" height="523px" viewBox="0 0 1431 523" version="1.1" xmlns="http://www.w3.org/2000/svg" xmlns:xlink="http://www.w3.org/1999/xlink">
    <g id="Desktop-1440" stroke="none" stroke-width="1" fill="none" fill-rule="evenodd">
        <g id="Desktop-HD:-Footer-Version-5" transform="translate(0.000000, -610.000000)" fill="#0055A2">
            <g id="Page-1" transform="translate(707.500000, 871.500000) scale(1, -1) rotate(90.000000) translate(-707.500000, -871.500000) translate(446.000000, 148.000000)">
                <polygon id="Fill-1" opacity="0.25" points="1 999.999793 1 810 165.498548 905.000104 330 999.999793 165.499378 1095.00114 1 1190"></polygon>
                <polygon id="Fill-3" opacity="0.5" points="1 637.5 1 465 149.998136 551.25 299 637.5 149.998964 723.751246 1 810"></polygon>
                <polygon id="Fill-5" opacity="0.5" points="358 1384.00021 358 1344 392.999582 1363.99948 428 1384.00021 392.999582 1404.0001 358 1424"></polygon>
                <polygon id="Fill-7" opacity="0.25" points="1 1332.49958 1 1229 91 1280.74958 181 1332.49958 91 1384.24958 1 1436"></polygon>
                <polygon id="Fill-9" opacity="0.5" points="268 1201.00021 268 1111 345.499586 1155.99844 423 1201.00021 345.499586 1245.9999 268 1291"></polygon>
                <polygon id="Fill-11" opacity="0.5" points="358 1110.00042 358 1058 403.50021 1084.00021 449 1110.00042 403.50021 1135.99938 358 1162"></polygon>
                <polygon id="Fill-13" opacity="0.75" points="180 1292 180 1241 224 1266.49979 268 1292 224 1317.50062 180 1343"></polygon>
                <polygon id="Fill-15" opacity="0.75" points="180.183989 1395.69357 180.183989 1344.38748 224.497671 1370.04032 268.811353 1395.69357 224.497671 1421.34725 180.183989 1447.00008"></polygon>
                <polygon id="Fill-18" opacity="0.75" points="268 1344 268 1292 313.50021 1317.99979 359 1344 313.50021 1369.99979 268 1396"></polygon>
                <polygon id="Fill-20" opacity="0.25" points="268 1057.99958 268 1006 313.50021 1031.99979 359 1057.99958 313.50021 1083.99979 268 1110"></polygon>
                <polygon id="Fill-22" opacity="0.25" points="351 608 351 522 425 565 499 608 425 650.999583 351 694"></polygon>
                <polygon id="Fill-24" opacity="0.25" points="81 1239.50021 81 1183 130.499791 1211.24907 180 1239.50021 130.499791 1267.7501 81 1296"></polygon>
                <polygon id="Fill-26" opacity="0.5" points="0 219.000417 0 373 132.5 296.000833 265 219.000417 132.5 142.000417 0 65"></polygon>
                <polygon id="Fill-28" opacity="0.75" points="152 521.999584 152 640 251.999381 581.001663 352 521.999584 251.999381 463 152 404"></polygon>
                <polygon id="Fill-30" opacity="0.75" points="262 391.5 262 443 307.499579 417.25 353 391.5 307.499579 365.749587 262 340"></polygon>
                <polygon id="Fill-32" opacity="0.75" points="351 335.500207 351 392 400.5 363.750311 450 335.500207 400.5 307.250104 351 279"></polygon>
                <polygon id="Fill-34" opacity="0.319999993" points="273.2515 72.0550271 273.2515 143.747523 335.5915 107.901482 397.930667 72.0550271 335.5915 36.2085718 273.2515 0.361701441"></polygon>
                <polygon id="Fill-37" opacity="0.319999993" points="273 216.000417 273 288 335.500418 252 398 216.000417 335.500418 180.000417 273 144"></polygon>
                <polygon id="Fill-39" opacity="0.25" points="351 455.499793 351 520 407.499372 487.751138 464 455.499793 407.499372 423.250103 351 391"></polygon>
                <polygon id="Fill-41" opacity="0.25" points="102 340.499583 102 434 182.499378 387.251669 263 340.499583 182.499378 293.749583 102 247"></polygon>
                <polygon id="Fill-43" opacity="0.25" points="424.35574 1256.97843 424.35574 1200.34719 473.512128 1228.66281 522.67099 1256.97843 473.512128 1285.29406 424.35574 1313.60968"></polygon>
                <polygon id="Fill-46" opacity="0.75" points="397 143.000417 397 215 459.500209 179 522 143.000417 459.500209 107.000417 397 71"></polygon>
                <polygon id="Fill-48" opacity="0.25" points="448 1075 448 1037 480.5 1056 513 1075 480.5 1094.00042 448 1113"></polygon>
            </g>
        </g>
    </g>
</svg>