<?xml version="1.0" encoding="UTF-8"?>
<svg width="475px" height="399px" viewBox="0 0 475 399" version="1.1" xmlns="http://www.w3.org/2000/svg" xmlns:xlink="http://www.w3.org/1999/xlink">
    <defs></defs>
    <g id="Page-Mockup-Components" stroke="none" stroke-width="1" fill="none" fill-rule="evenodd">
        <g id="02_Cards_Desktop" transform="translate(0.000000, -651.000000)" fill="#0055A2">
            <g id="Cards">
                <g id="art/art-history" transform="translate(0.000000, 378.000000)">
                    <g id="blue-pattern-container" transform="translate(0.000000, 267.000000)">
                        <g id="triangles-copy" transform="translate(225.000000, 264.000000) rotate(-90.000000) translate(-225.000000, -264.000000) translate(-38.000000, -50.000000)">
                            <polygon id="Fill-1" opacity="0.25" points="0 471.077924 0 375.537988 82.352798 423.30806 164.70705 471.077924 82.3532134 518.848623 0 566.61807"></polygon>
                            <polygon id="Fill-3" opacity="0.5" points="0 288.208419 0 201.376454 74.3909241 244.792437 148.78371 288.208419 74.3913378 331.625028 0 375.040383"></polygon>
                            <polygon id="Fill-9" opacity="0.5" points="134.353183 571.096614 134.353183 525.814511 172.917316 548.454725 211.481862 571.096614 172.917316 593.737456 134.353183 616.378508"></polygon>
                            <polygon id="Fill-11" opacity="0.5" points="179.635181 525.814721 179.635181 499.441478 202.276285 512.6281 224.91718 525.814721 202.276285 539.000711 179.635181 552.187543"></polygon>
                            <polygon id="Fill-20" opacity="0.25" points="134.353183 499.441267 134.353183 473.068446 156.994287 486.254857 179.635181 499.441267 156.994287 512.627889 134.353183 525.814511"></polygon>
                            <polygon id="Fill-22" opacity="0.25" points="176.649555 273.777892 176.649555 230.735113 213.969884 252.256502 251.290212 273.777892 213.969884 295.299072 176.649555 316.820671"></polygon>
                            <polygon id="Fill-28" opacity="0.75" points="76.1334702 230.2373 76.1334702 289.45243 126.391201 259.845804 176.649555 230.2373 126.391201 200.630048 76.1334702 171.022587"></polygon>
                            <polygon id="Fill-30" opacity="0.75" points="131.367556 164.304928 131.367556 189.931554 154.008346 177.118241 176.649555 164.304928 154.008346 151.49141 131.367556 138.678303"></polygon>
                            <polygon id="Fill-32" opacity="0.75" points="176.649555 136.687989 176.649555 165.051335 201.529774 150.869766 226.409993 136.687989 201.529774 122.506212 176.649555 108.324435"></polygon>
                            <polygon id="Fill-37" opacity="0.319999993" points="137.338809 77.7219776 137.338809 114.295688 168.688095 96.0087269 200.036961 77.7219776 168.688095 59.4350166 137.338809 41.1478439"></polygon>
                            <polygon id="Fill-39" opacity="0.25" points="176.649555 197.146714 176.649555 229.2423 205.01269 213.195125 233.376454 197.146714 205.01269 181.099127 176.649555 165.051335"></polygon>
                            <polygon id="Fill-41" opacity="0.25" points="51.2532512 138.678094 51.2532512 185.453114 91.3100942 162.066543 131.367556 138.678094 91.3100942 115.290688 51.2532512 91.9034908"></polygon>
                            <polygon id="Fill-48" opacity="0.25" points="224.91718 507.900753 224.91718 488.991786 241.089322 498.44627 257.261465 507.900753 241.089322 517.355445 224.91718 526.809719"></polygon>
                            <polygon id="Fill-1" opacity="0.25" points="263 471.077924 263 375.537988 345.352798 423.30806 427.70705 471.077924 345.353213 518.848623 263 566.61807"></polygon>
                            <polygon id="Fill-3" opacity="0.5" points="263 288.208419 263 201.376454 337.390924 244.792437 411.78371 288.208419 337.391338 331.625028 263 375.040383"></polygon>
                            <polygon id="Fill-9" opacity="0.5" points="397.353183 571.096614 397.353183 525.814511 435.917316 548.454725 474.481862 571.096614 435.917316 593.737456 397.353183 616.378508"></polygon>
                            <polygon id="Fill-11" opacity="0.5" points="442.635181 525.814721 442.635181 499.441478 465.276285 512.6281 487.91718 525.814721 465.276285 539.000711 442.635181 552.187543"></polygon>
                            <polygon id="Fill-20" opacity="0.25" points="397.353183 499.441267 397.353183 473.068446 419.994287 486.254857 442.635181 499.441267 419.994287 512.627889 397.353183 525.814511"></polygon>
                            <polygon id="Fill-22" opacity="0.25" points="439.649555 273.777892 439.649555 230.735113 476.969884 252.256502 514.290212 273.777892 476.969884 295.299072 439.649555 316.820671"></polygon>
                            <polygon id="Fill-24" opacity="0.25" points="303.803559 590.503184 303.803559 562.13963 328.683673 576.320889 353.563997 590.503184 328.683673 604.684857 303.803559 618.86653"></polygon>
                            <polygon id="Fill-26" opacity="0.5" points="263 77.7219752 263 155.099247 329.430185 116.410925 395.86037 77.7219752 329.430185 39.0332346 263 0.344284736"></polygon>
                            <polygon id="Fill-28" opacity="0.75" points="339.13347 230.2373 339.13347 289.45243 389.391201 259.845804 439.649555 230.2373 389.391201 200.630048 339.13347 171.022587"></polygon>
                            <polygon id="Fill-30" opacity="0.75" points="394.367556 164.304928 394.367556 189.931554 417.008346 177.118241 439.649555 164.304928 417.008346 151.49141 394.367556 138.678303"></polygon>
                            <polygon id="Fill-32" opacity="0.75" points="439.649555 136.687989 439.649555 165.051335 464.529774 150.869766 489.409993 136.687989 464.529774 122.506212 439.649555 108.324435"></polygon>
                            <polygon id="Fill-37" opacity="0.319999993" points="400.338809 77.7219776 400.338809 114.295688 431.688095 96.0087269 463.036961 77.7219776 431.688095 59.4350166 400.338809 41.1478439"></polygon>
                            <polygon id="Fill-39" opacity="0.25" points="439.649555 197.146714 439.649555 229.2423 468.01269 213.195125 496.376454 197.146714 468.01269 181.099127 439.649555 165.051335"></polygon>
                            <polygon id="Fill-41" opacity="0.25" points="314.253251 138.678094 314.253251 185.453114 354.310094 162.066543 394.367556 138.678094 354.310094 115.290688 314.253251 91.9034908"></polygon>
                            <polygon id="Fill-48" opacity="0.25" points="487.91718 507.900753 487.91718 488.991786 504.089322 498.44627 520.261465 507.900753 504.089322 517.355445 487.91718 526.809719"></polygon>
                        </g>
                    </g>
                </g>
            </g>
        </g>
    </g>
</svg>