<?xml version="1.0" encoding="UTF-8"?>
<svg width="1399px" height="393px" viewBox="0 0 1399 393" version="1.1" xmlns="http://www.w3.org/2000/svg" xmlns:xlink="http://www.w3.org/1999/xlink">
    <defs></defs>
    <g id="GlobalNavigation" stroke="none" stroke-width="1" fill="none" fill-rule="evenodd">
        <g id="06_GlobalNavigationExpanded_Desktop" transform="translate(-21.000000, -81.000000)" fill="#0055A2">
            <g id="Page-1" transform="translate(720.352998, 222.000000) rotate(90.000000) translate(-720.352998, -222.000000) translate(467.852998, -477.500000)">
                <polygon id="Fill-1" opacity="0.25" points="0.97582205 966.063629 0.97582205 782.609284 160.033412 874.336657 319.09381 966.063629 160.034215 1057.7922 0.97582205 1149.51838"></polygon>
                <polygon id="Fill-3" opacity="0.5" points="0.97582205 616.719536 0.97582205 449.853965 144.907774 533.28675 288.843327 616.719536 144.908574 700.153527 0.97582205 783.585106"></polygon>
                <polygon id="Fill-5" opacity="0.5" points="346.416828 1337.36432 346.416828 1298.81915 380.082286 1318.09114 413.748549 1337.36432 380.082286 1356.63671 346.416828 1375.90909"></polygon>
                <polygon id="Fill-7" opacity="0.25" points="0.97582205 1287.59679 0.97582205 1187.57544 87.8239845 1237.58591 174.672147 1287.59679 87.8239845 1337.60767 0.97582205 1387.61896"></polygon>
                <polygon id="Fill-9" opacity="0.5" points="258.592843 1160.25262 258.592843 1073.40426 333.73074 1116.82683 408.869439 1160.25262 333.73074 1203.6764 258.592843 1247.10058"></polygon>
                <polygon id="Fill-11" opacity="0.5" points="346.416828 1072.91675 346.416828 1022.66151 390.329023 1047.78913 434.240812 1072.91675 390.329023 1098.04316 346.416828 1123.17118"></polygon>
                <polygon id="Fill-13" opacity="0.75" points="173.696325 1248.56431 173.696325 1199.2853 216.144584 1223.92461 258.592843 1248.56431 216.144584 1273.20442 173.696325 1297.84333"></polygon>
                <polygon id="Fill-15" opacity="0.75" points="173.696325 1348.58587 173.696325 1298.81915 216.632495 1323.70231 259.568665 1348.58587 216.632495 1373.46984 173.696325 1398.353"></polygon>
                <polygon id="Fill-18" opacity="0.75" points="258.592843 1298.33124 258.592843 1248.0764 302.505039 1273.20362 346.416828 1298.33124 302.505039 1323.45845 258.592843 1348.58607"></polygon>
                <polygon id="Fill-20" opacity="0.25" points="258.592843 1022.1732 258.592843 971.918762 302.505039 997.045979 346.416828 1022.1732 302.505039 1047.30081 258.592843 1072.42843"></polygon>
                <polygon id="Fill-22" opacity="0.25" points="339.586074 587.444874 339.586074 504.5 411.308994 545.972437 483.031915 587.444874 411.308994 628.916909 339.586074 670.389749"></polygon>
                <polygon id="Fill-24" opacity="0.25" points="78.065764 1198.30968 78.065764 1143.66344 125.880843 1170.98556 173.696325 1198.30968 125.880843 1225.6326 78.065764 1252.95551"></polygon>
                <polygon id="Fill-26" opacity="0.5" points="0 211.265876 0 360.078337 127.832689 285.67271 255.665377 211.265876 127.832689 136.859445 0 62.4526112"></polygon>
                <polygon id="Fill-28" opacity="0.75" points="147.34913 504.499598 147.34913 618.67118 243.954914 561.587199 340.561896 504.499598 243.954914 447.41441 147.34913 390.32882"></polygon>
                <polygon id="Fill-30" opacity="0.75" points="252.737911 378.618956 252.737911 428.38588 296.649497 403.502418 340.561896 378.618956 296.649497 353.735094 252.737911 328.852031"></polygon>
                <polygon id="Fill-32" opacity="0.75" points="339.586074 323.973121 339.586074 378.618956 387.401354 351.296239 435.216634 323.973121 387.401354 296.650004 339.586074 269.326886"></polygon>
                <polygon id="Fill-34" opacity="0.319999993" points="264.447776 69.2837666 264.447776 138.566731 324.461233 103.925449 384.473888 69.2837666 324.461233 34.6420838 264.447776 0"></polygon>
                <polygon id="Fill-37" opacity="0.319999993" points="263.471954 209.314234 263.471954 279.085106 323.973325 244.199468 384.473888 209.314234 323.973325 174.428595 263.471954 139.542553"></polygon>
                <polygon id="Fill-39" opacity="0.25" points="339.586074 440.095544 339.586074 502.548356 394.231501 471.323153 448.878143 440.095544 394.231501 408.869539 339.586074 377.643133"></polygon>
                <polygon id="Fill-41" opacity="0.25" points="98.5580271 329.339539 98.5580271 419.603482 176.13528 374.473323 253.713733 329.339539 176.13528 284.207769 98.5580271 239.076402"></polygon>
                <polygon id="Fill-43" opacity="0.25" points="409.845261 1214.89845 409.845261 1160.25242 457.171439 1187.57544 504.5 1214.89845 457.171439 1242.22147 409.845261 1269.54449"></polygon>
                <polygon id="Fill-46" opacity="0.75" points="383.498066 138.079224 383.498066 207.850097 443.999235 172.964458 504.5 138.079224 443.999235 103.193586 383.498066 68.3075435"></polygon>
                <polygon id="Fill-48" opacity="0.25" points="433.26499 1038.76257 433.26499 1002.16925 464.491296 1020.46591 495.717602 1038.76257 464.491296 1057.05964 433.26499 1075.3559"></polygon>
            </g>
        </g>
    </g>
</svg>