<svg xmlns="http://www.w3.org/2000/svg" width="38" height="28" viewBox="0 0 38 28"><title>YouTube</title><desc>See YouTube Channel</desc><g fill="none"><g fill="#000000"><path d="M37.6 6.1C37.6 6.1 38.1 9.3 38 12.6L38 15.5C38 18.7 37.6 21.9 37.6 21.9 37.6 21.9 37.3 24.7 36.2 25.9 34.7 27.4 33.1 27.4 32.3 27.6 27 28 19 28 19 28 19 28 9 27.9 6 27.4 5.2 27.3 3.3 27.3 1.8 25.8 0.7 24.6 0.3 21.8 0.3 21.8 0.3 21.8 0 18.6 0 15.4L0 12.5C0 9.3 0.3 6.1 0.3 6.1 0.3 6.1 0.7 3.3 1.8 2.1 3.3 0.6 4.9 0.6 5.7 0.4 11 0 19 0 19 0 19 0 27 0 32.3 0.4 33.1 0.6 34.7 0.6 36.2 2.1 37.3 3.3 37.6 6.1 37.6 6.1ZM14.8 7.3L14.8 20.7 26.4 14 14.8 7.3Z"/></g></g></svg>
