<?xml version="1.0" encoding="UTF-8"?>
<svg xmlns="http://www.w3.org/2000/svg" version="1.1" viewBox="0 0 257.9 291.4">
  <defs>
    <style>
      .cls-1 {
        fill: #ff004f;
      }

      .cls-2 {
        fill: #00f2ea;
      }
    </style>
  </defs>
  <!-- Generator: Adobe Illustrator 28.7.5, SVG Export Plug-In . SVG Version: 1.2.0 Build 176)  -->
  <g>
    <g id="Layer_1">
      <g>
        <path class="cls-1" d="M191.1,105.2c18.8,13.4,41.9,21.4,66.8,21.4v-47.9c-4.7,0-9.4-.5-14-1.5v37.7c-24.9,0-47.9-7.9-66.8-21.3v97.7c0,48.9-39.6,88.5-88.5,88.5s-35.2-5.5-49.3-15c16.1,16.4,38.5,26.6,63.3,26.6,48.9,0,88.5-39.6,88.5-88.5v-97.7h0ZM208.4,56.9c-9.6-10.5-15.9-24.1-17.3-39.1v-6.2h-13.3c3.3,19.1,14.8,35.4,30.6,45.2h0ZM70.2,227.2c-5.4-7-8.3-15.7-8.3-24.5,0-22.4,18.1-40.5,40.5-40.5,4.2,0,8.3.6,12.3,1.9v-48.9c-4.6-.6-9.3-.9-14-.8v38.1c-4-1.3-8.1-1.9-12.3-1.9-22.4,0-40.5,18.1-40.5,40.5s9.1,29.5,22.3,36.2Z"/>
        <path d="M177.1,93.5c18.8,13.4,41.9,21.3,66.8,21.3v-37.7c-13.9-3-26.2-10.2-35.4-20.3-15.8-9.9-27.2-26.2-30.6-45.2h-34.9v191.2c0,22.3-18.2,40.3-40.5,40.3s-24.8-6.3-32.2-16c-13.2-6.7-22.3-20.4-22.3-36.2,0-22.4,18.1-40.5,40.5-40.5s8.4.7,12.3,1.9v-38.1c-48,1-86.7,40.2-86.7,88.5s9.6,45.9,25.2,61.9c14.1,9.5,31,15,49.3,15,48.9,0,88.5-39.6,88.5-88.5v-97.7h0Z"/>
        <path class="cls-2" d="M243.8,77.2v-10.2c-12.5,0-24.8-3.5-35.4-10.1,9.4,10.3,21.8,17.4,35.4,20.3ZM177.8,11.7c-.3-1.8-.6-3.7-.7-5.5V0h-48.2v191.2c0,22.3-18.2,40.3-40.5,40.3s-12.7-1.6-18.2-4.3c7.4,9.7,19.1,16,32.2,16,22.3,0,40.4-18,40.5-40.3V11.7h34.9ZM100.7,114.4v-10.8c-4-.6-8.1-.8-12.1-.8-48.9,0-88.5,39.6-88.5,88.5s15.6,57.6,39.3,73.5c-15.6-16-25.2-37.8-25.2-61.9,0-48.2,38.6-87.5,86.7-88.5Z"/>
      </g>
    </g>
  </g>
</svg>