<?xml version="1.0" encoding="UTF-8"?>
<svg id="LOGOS" xmlns="http://www.w3.org/2000/svg" viewBox="0 0 1300 1300">
  <path d="M943.43,404.17c-48.74-31.78-83.91-82.62-94.88-141.89-2.37-12.81-3.67-25.99-3.67-39.47h-155.55l-.25,623.38c-2.62,69.81-60.07,125.83-130.5,125.83-21.89,0-42.5-5.47-60.65-15.02-41.62-21.9-70.1-65.52-70.1-115.73,0-72.1,58.66-130.76,130.75-130.76,13.46,0,26.37,2.22,38.58,6.05v-158.8c-12.64-1.72-25.48-2.8-38.58-2.8-157.87,0-286.3,128.44-286.3,286.3,0,96.86,48.39,182.58,122.22,234.41,46.5,32.65,103.07,51.89,164.08,51.89,157.87,0,286.3-128.43,286.3-286.3v-316.11c61.01,43.79,135.75,69.59,216.4,69.59v-155.55c-43.45,0-83.91-12.92-117.85-35.04Z" fill="#e4a925"/>
</svg>