<svg id="Layer_1" data-name="Layer 1" xmlns="http://www.w3.org/2000/svg" viewBox="0 0 461.68 485.11"><defs><style>.cls-1{fill:#fff;}</style></defs><title>icon-canvas-white</title><circle class="cls-1" cx="230.84" cy="339.55" r="15.52"/><path class="cls-1" d="M179.83,414.14a50.65,50.65,0,0,1,50.69-46,51.65,51.65,0,0,1,51.33,46C277.74,417.94,219.41,426.9,179.83,414.14Z"/><circle class="cls-1" cx="230.84" cy="145.56" r="15.52"/><path class="cls-1" d="M281.85,71a50.65,50.65,0,0,1-50.69,46,51.65,51.65,0,0,1-51.33-46C183.94,67.17,242.26,58.21,281.85,71Z"/><circle class="cls-1" cx="162.25" cy="311.14" r="15.52"/><path class="cls-1" d="M73.44,327.82a50.63,50.63,0,0,1,68.34,3.34,51.64,51.64,0,0,1,3.8,68.79C140,399.74,92.41,364.83,73.44,327.82Z"/><circle class="cls-1" cx="299.42" cy="173.97" r="15.52"/><path class="cls-1" d="M388.23,157.29A50.62,50.62,0,0,1,319.9,154a51.64,51.64,0,0,1-3.8-68.79C321.69,85.37,369.27,120.28,388.23,157.29Z"/><circle class="cls-1" cx="133.85" cy="242.56" r="15.52"/><path class="cls-1" d="M59.26,191.55a50.64,50.64,0,0,1,46,50.68,51.65,51.65,0,0,1-46,51.33C55.45,289.46,46.49,231.13,59.26,191.55Z"/><circle class="cls-1" cx="327.83" cy="242.56" r="15.52"/><path class="cls-1" d="M402.42,293.56a50.64,50.64,0,0,1-46-50.68,51.64,51.64,0,0,1,46-51.33C406.23,195.65,415.19,254,402.42,293.56Z"/><circle class="cls-1" cx="162.25" cy="173.97" r="15.52"/><path class="cls-1" d="M145.58,85.16a50.65,50.65,0,0,1-3.34,68.34,51.65,51.65,0,0,1-68.8,3.79C73.66,151.7,108.56,104.12,145.58,85.16Z"/><circle class="cls-1" cx="299.42" cy="311.14" r="15.52"/><path class="cls-1" d="M316.1,400a50.64,50.64,0,0,1,3.34-68.34,51.64,51.64,0,0,1,68.79-3.79C388,333.41,353.11,381,316.1,400Z"/></svg>