<svg xmlns="http://www.w3.org/2000/svg" width="34" height="32" viewBox="0 0 34 32"><title>  SnapChat</title><g fill="none"><g fill="#000000"><path d="M33 23.7C28.4 22.9 26.4 18.2 26.3 18.1 26.3 18 26.3 18 26.3 18 26 17.5 26 17.1 26.1 16.8 26.4 16.2 27.4 15.9 28 15.7 28.2 15.6 28.3 15.5 28.5 15.5 29.6 15 30.2 14.5 30.2 13.9 30.2 13.3 29.8 12.9 29.2 12.7 28.9 12.6 28.7 12.6 28.5 12.6 28.3 12.6 28 12.6 27.8 12.7 27.3 12.9 26.8 13.1 26.4 13.1 26.1 13.1 25.9 13 25.8 13 25.8 12.7 25.8 12.5 25.9 12.2L25.9 12.1C26 9.9 26.2 7 25.4 5.4 23.2 0.4 18.5 0 17.1 0L17 0 16.4 0C15.1 0 10.4 0.4 8.1 5.4 7.4 7 7.6 9.9 7.7 12.1 7.7 12.4 7.8 12.7 7.8 13 7.7 13 7.4 13.1 7.1 13.1 6.7 13.1 6.2 13 5.6 12.7 5.4 12.6 5.2 12.6 5 12.6 4.4 12.6 3.5 13 3.4 13.7 3.3 14.2 3.5 14.9 5.1 15.5 5.2 15.6 5.4 15.6 5.6 15.7 6.2 15.9 7.2 16.2 7.4 16.8 7.6 17.1 7.5 17.5 7.3 18 7.3 18 7.3 18.1 7.3 18.1 7.2 18.3 5.1 22.9 0.6 23.7 0.2 23.8 0 24.1 0 24.4 0 24.5 0 24.6 0.1 24.7 0.4 25.5 1.9 26.1 4.5 26.5 4.6 26.7 4.7 27.1 4.7 27.3 4.8 27.6 4.8 27.8 4.9 28.1 5 28.4 5.2 28.7 5.7 28.7 6 28.7 6.2 28.7 6.5 28.6 6.9 28.5 7.5 28.4 8.3 28.4 8.7 28.4 9.1 28.4 9.6 28.5 10.4 28.7 11.1 29.2 12 29.8 13.2 30.6 14.5 31.6 16.6 31.6 16.6 31.6 16.7 31.6 16.7 31.6 16.8 31.6 16.9 31.6 17 31.6 19.1 31.6 20.4 30.6 21.6 29.8 22.4 29.2 23.2 28.7 24 28.5 24.4 28.4 24.9 28.4 25.3 28.4 26 28.4 26.6 28.5 27.1 28.6 27.4 28.7 27.6 28.7 27.8 28.7L27.8 28.7 27.9 28.7C28.3 28.7 28.5 28.5 28.6 28.1 28.7 27.8 28.8 27.6 28.8 27.3 28.9 27.1 29 26.6 29.1 26.5 31.7 26.1 33.1 25.5 33.5 24.7 33.5 24.6 33.6 24.5 33.6 24.4 33.6 24.1 33.3 23.7 33 23.7"/></g></g></svg>
