<svg xmlns="http://www.w3.org/2000/svg" width="29" height="28" viewBox="0 0 29 28"><title>Instagram</title><desc>See Instagram page</desc><g fill="none"><g fill="#000000"><path d="M21.1 27.9L7.9 27.9C3.5 27.9 0.1 24.5 0.1 20.4L0.1 7.6C0.1 3.5 3.6 0.1 7.9 0.1L21 0.1C25.4 0.1 28.8 3.5 28.8 7.6L28.8 20.3C28.9 24.5 25.4 27.9 21.1 27.9ZM7.9 2.4C4.9 2.4 2.5 4.7 2.5 7.6L2.5 20.3C2.5 23.2 4.9 25.5 7.9 25.5L21 25.5C24 25.5 26.4 23.2 26.4 20.3L26.4 7.6C26.4 4.7 24 2.4 21 2.4L7.9 2.4Z"/><path d="M14.5 20.9C10.5 20.9 7.3 17.9 7.3 14 7.3 10.1 10.5 7.1 14.5 7.1 18.5 7.1 21.7 10.1 21.7 14 21.7 17.9 18.5 20.9 14.5 20.9ZM14.5 9.4C11.9 9.4 9.7 11.5 9.7 14 9.7 16.5 11.9 18.6 14.5 18.6 17.1 18.6 19.3 16.5 19.3 14 19.3 11.5 17.1 9.4 14.5 9.4Z"/><ellipse cx="22.1" cy="6.6" rx="1.7" ry="1.7"/></g></g></svg>
