<?xml version="1.0" encoding="UTF-8"?><svg id="Layer_1" xmlns="http://www.w3.org/2000/svg" viewBox="0 0 461.68 485.11"><defs><style>.cls-1{fill:#fff;}</style></defs><path class="cls-1" d="M389.3,80.11H72.38c-18.59,0-33.66,15.07-33.66,33.66v217.95c0,18.59,15.07,33.66,33.66,33.66h100.08c-.5,7.36-2.71,14.52-6.47,20.89l-5.95,10.08c-2.26,3.82,.5,8.65,4.94,8.65h131.74c4.44,0,7.19-4.83,4.94-8.65l-5.95-10.08c-3.77-6.38-5.98-13.53-6.47-20.89h100.08c18.59,0,33.66-15.07,33.66-33.66V113.77c0-18.59-15.07-33.66-33.66-33.66Zm-2.26,246.46H74.64V118.92H387.04v207.65Z"/></svg>