<?xml version="1.0" encoding="UTF-8"?>
<svg width="36px" height="37px" viewBox="0 0 36 37" version="1.1" xmlns="http://www.w3.org/2000/svg" xmlns:xlink="http://www.w3.org/1999/xlink">
    <!-- Generator: Sketch 49.3 (51167) - http://www.bohemiancoding.com/sketch -->
    <title>Purchase Tickets Icon</title>
    <defs></defs>
    <g id="Contact" stroke="none" stroke-width="1" fill="none" fill-rule="evenodd">
        <g id="03_Contact_Desktop_Extras" transform="translate(-641.000000, -691.000000)">
            <g id="Contact" transform="translate(0.000000, -3.000000)">
                <g id="contact" transform="translate(640.000000, 694.000000)">
                    <g id="Purchase-Tickets-Icon">
                        <path d="M27.4319418,10.2574167 C25.8320108,8.65482759 25.8320108,6.05809852 27.4319418,4.45550936 L23.8975949,0.918102463 L0.952955984,23.8838798 L4.48730284,27.4212867 C6.08723387,25.8199704 8.68298844,25.8199704 10.2829195,27.4212867 C11.8828505,29.022603 11.8828505,31.6206049 10.2829195,33.2219212 L13.8172663,36.7593281 L36.7631771,13.7948236 L33.2288302,10.2574167 C31.6276274,11.858733 29.0331446,11.858733 27.4319418,10.2574167" id="Fill-4" fill="#9B9B9B"></path>
                        <path d="M17.5474914,25.8323418 C17.4270145,25.9520025 17.2338836,25.9520025 17.1143264,25.8323418 L11.8703627,20.5847583 C11.7508055,20.4641771 11.7508055,20.270879 11.8703627,20.1512183 L20.1685536,11.8458428 C20.2881108,11.7252616 20.4821614,11.7252616 20.6017186,11.8458428 L25.8447627,17.0934262 C25.9652395,17.213087 25.9652395,17.4073056 25.8447627,17.5269663 L17.5474914,25.8323418 Z" id="Fill-6" fill="#FFFFFF"></path>
                    </g>
                </g>
            </g>
        </g>
    </g>
</svg>