<?xml version="1.0" encoding="UTF-8"?>
<svg width="33px" height="34px" viewBox="0 0 33 34" version="1.1" aria-hidden="true" xmlns="http://www.w3.org/2000/svg" xmlns:xlink="http://www.w3.org/1999/xlink">
    <title>Contact Us</title>
    <defs></defs>
    <g id="Contact" stroke="none" stroke-width="1" fill="none" fill-rule="evenodd">
        <g id="02_Contact_Desktop" transform="translate(-644.000000, -386.000000)" fill="#9B9B9B">
            <g id="Contact" transform="translate(0.000000, -3.000000)">
                <g id="contact" transform="translate(644.000000, 389.000000)">
                    <path d="M1.83333333,0 C0.8195,0 0,0.844333333 0,1.88888889 C0,19.6217778 13.9553333,34 31.1666667,34 C32.1805,34 33,33.1556667 33,32.1111111 L33,25.5 C33,24.4573333 32.1805,23.613 31.1666667,23.613 C28.8786667,23.613 26.6786667,23.2333333 24.618,22.5382222 C24.4346667,22.4777778 24.2421667,22.4475556 24.0515,22.4475556 C23.584,22.4475556 23.1146667,22.6326667 22.7571667,23.001 L18.722,27.1622222 C13.53,24.4422222 9.28583333,20.0694444 6.64216667,14.722 L10.6755,10.5532222 C11.1796667,10.0356667 11.3281667,9.28955556 11.1246667,8.636 C10.45,6.511 10.0815,4.24433333 10.0815,1.88888889 C10.0815,0.844333333 9.262,0 8.25,0 L1.83333333,0 Z" id="Imported-Layers"></path>
                </g>
            </g>
        </g>
    </g>
</svg>