<?xml version="1.0" encoding="UTF-8"?>
<svg width="30px" height="30px" viewBox="0 0 30 30" version="1.1" xmlns="http://www.w3.org/2000/svg" xmlns:xlink="http://www.w3.org/1999/xlink">
    <!-- Generator: Sketch 53 (72520) - https://sketchapp.com -->
    <title>SJSU_Give_Icon_01 Copy 6</title>
    <desc>Created with Sketch.</desc>
    <g id="Contact" stroke="none" stroke-width="1" fill="none" fill-rule="evenodd">
        <g id="SJSU_Give_Icon_01-Copy-6" fill="#0055A2" fill-rule="nonzero">
            <path d="M23.0764615,1.67540501 C25.4442838,6.62367864 15.4047169,5.82842038 15.0258653,5.03316212 C14.5523008,4.23790386 20.7086391,-3.27286861 23.0764615,1.67540501 Z" id="Shape"></path>
            <path d="M6.91715879,1.67540501 C4.57231248,6.62367864 14.6082547,5.82842038 14.9834301,5.03316212 C15.3586055,4.23790386 9.2620051,-3.27286861 6.91715879,1.67540501 Z" id="Shape"></path>
            <path d="M27.4957192,7.5 L15.9375,7.5 L15.9375,15 L27.4957192,15 C28.8441781,15 30,13.9285714 30,12.6623377 L30,9.83766234 C30,8.47402597 28.9404966,7.5 27.4957192,7.5 Z" id="Shape"></path>
            <path d="M2.50428082,7.5 L14.0625,7.5 L14.0625,15 L2.50428082,15 C1.05950342,15 0,13.9285714 0,12.6623377 L0,9.83766234 C0,8.47402597 1.05950342,7.5 2.50428082,7.5 Z" id="Shape"></path>
            <path d="M15.9375,16.875 L15.9375,29.0625 L24.7179878,29.0625 C26.089939,29.0625 27.1875,28.2439366 27.1875,27.1525187 L27.1875,16.875 L15.9375,16.875 Z" id="Shape"></path>
            <path d="M14.1176471,16.875 L14.1176471,29.0625 L5.16499283,29.0625 C3.7661406,29.0625 2.64705882,28.2439366 2.64705882,27.1525187 L2.64705882,16.875 L14.1176471,16.875 Z" id="Shape"></path>
        </g>
    </g>
</svg>