<svg xmlns="http://www.w3.org/2000/svg" viewBox="0 0 461.68 485.11"><defs><style>.cls-1{fill:#e4a925;}</style></defs><g id="Layer_2" data-name="Layer 2"><path class="cls-1" d="M97,251.64v73.82a27.4,27.4,0,0,0,8.69,20.08,185.28,185.28,0,0,0,250.22,0,27.4,27.4,0,0,0,8.69-20.08V251.64l-133.8,50.42Z"/><path class="cls-1" d="M69.73,340.43a16.36,16.36,0,0,0-8.38-14.28V200.43l169.31,64,.18.06,217.18-82-217-78-.17-.07-217.18,78,31.69,12V326.15a16.35,16.35,0,0,0-1.82,27.35L34.1,390.16H72.61L63.18,353.5A16.33,16.33,0,0,0,69.73,340.43Z"/></g></svg>