
<svg width="20px" height="20px" viewBox="0 0 20 20" version="1.1" xmlns="http://www.w3.org/2000/svg" xmlns:xlink="http://www.w3.org/1999/xlink">
    <!-- Generator: Sketch 49.2 (51160) - http://www.bohemiancoding.com/sketch -->
    <desc>Created with Sketch.</desc>
    <defs></defs>
    <g id="GlobalNavigation" stroke="none" stroke-width="1" fill="none" fill-rule="evenodd">
        <g id="01_GlobalNavigation_Mobile" transform="translate(-331.000000, -43.000000)" fill="#FFFFFF">
            <g id="mobile-header" transform="translate(0.000000, -1.000000)">
                <path d="M344.942057,56.451374 L350.849242,62.3585592 L349.28318,63.9246212 L343.370004,58.011445 C342.080087,58.9698365 340.482068,59.5368652 338.751611,59.5368652 C334.470515,59.5368652 331,56.0663506 331,51.7852539 C331,47.5041572 334.470515,44.0336426 338.751611,44.0336426 C343.032708,44.0336426 346.503223,47.5041572 346.503223,51.7852539 C346.503223,53.5371159 345.922079,55.1532445 344.942057,56.451374 Z M338.752373,57.4310156 C341.87002,57.4310156 344.397373,54.903663 344.397373,51.7860156 C344.397373,48.6683682 341.87002,46.1410156 338.752373,46.1410156 C335.634726,46.1410156 333.107373,48.6683682 333.107373,51.7860156 C333.107373,54.903663 335.634726,57.4310156 338.752373,57.4310156 Z" id="Search-Icon"></path>
            </g>
        </g>
    </g>
</svg>