<?xml version="1.0" encoding="UTF-8"?>
<svg width="27px" height="40px" viewBox="0 0 27 40" version="1.1" aria-hidden="true" xmlns="http://www.w3.org/2000/svg" xmlns:xlink="http://www.w3.org/1999/xlink">
    <title>Event Location</title>
    <defs></defs>
    <g id="Contact" stroke="none" stroke-width="1" fill="none" fill-rule="evenodd">
        <g id="03_Contact_Desktop_Extras" transform="translate(-1011.000000, -386.000000)" fill="#9B9B9B">
            <g id="Contact" transform="translate(0.000000, -3.000000)">
                <g id="visit-office" transform="translate(1011.000000, 389.000000)">
                    <path d="M13.5,0 C6.03642857,0 0,6.26 0,14 C0,24.5 13.5,40 13.5,40 C13.5,40 27,24.5 27,14 C27,6.26 20.9635714,0 13.5,0 L13.5,0 Z M13.5,19 C10.8385714,19 8.67857143,16.76 8.67857143,14 C8.67857143,11.24 10.8385714,9 13.5,9 C16.1614286,9 18.3214286,11.24 18.3214286,14 C18.3214286,16.76 16.1614286,19 13.5,19 L13.5,19 Z" id="Shape"></path>
                </g>
            </g>
        </g>
    </g>
</svg>