<svg id="Layer_1" data-name="Layer 1" xmlns="http://www.w3.org/2000/svg" viewBox="0 0 461.68 485.11"><title>icons_give-canvas-onesjsu-master</title><path d="M220.69,322.6,212.3,216.39l33.11.21L237,322.6Zm-6.88,15.91h30.1v29.67h-30.1Z"/><path d="M435.79,428H25.89A8,8,0,0,1,19,416l204.94-355a8,8,0,0,1,13.86,0L442.71,416a8,8,0,0,1-6.92,12Zm-396-16H421.93l-191.09-331Z"/><path d="M220.69,322.6,212.3,216.39l33.11.21L237,322.6Zm-6.88,15.91h30.1v29.67h-30.1Z"/><path d="M435.79,428H25.89A8,8,0,0,1,19,416l204.94-355a8,8,0,0,1,13.86,0L442.71,416a8,8,0,0,1-6.92,12Zm-396-16H421.93l-191.09-331Z"/></svg>