<?xml version="1.0" encoding="UTF-8"?>
<svg width="33px" height="23px" viewBox="0 0 33 23" version="1.1" aria-hidden="true" xmlns="http://www.w3.org/2000/svg" xmlns:xlink="http://www.w3.org/1999/xlink">
    <title>Subscribe</title>
    <defs>
        <polygon id="path-1" points="0 0.984 32.7059118 0.984 32.7059118 23.9999 0 23.9999"></polygon>
    </defs>
    <g id="Contact" stroke="none" stroke-width="1" fill="none" fill-rule="evenodd">
        <g id="03_Contact_Desktop_Extras" transform="translate(-1008.000000, -574.000000)">
            <g id="Contact" transform="translate(0.000000, -3.000000)">
                <g id="visit-office" transform="translate(1008.000000, 576.000000)">
                    <g id="subscribe,-icon">
                        <g id="body" transform="translate(0.000000, 0.015800)">
                            <mask id="mask-2" fill="white">
                                <use xlink:href="#path-1"></use>
                            </mask>
                            <g id="Clip-2"></g>
                            <path d="M30.1409382,23.9999 L2.56458529,23.9999 C1.14849706,23.9999 -0.000679411765,22.8169 -0.000679411765,21.3579 L-0.000679411765,3.6259 C-0.000679411765,2.1669 1.14849706,0.9839 2.56458529,0.9839 L30.1409382,0.9839 C31.5570265,0.9839 32.7062029,2.1669 32.7062029,3.6259 L32.7062029,21.3579 C32.7062029,22.8169 31.5570265,23.9999 30.1409382,23.9999" id="Fill-1" fill="#0055a2" mask="url(#mask-2)"></path>
                        </g>
                        <path d="M20.8729853,12.6808 L30.0790147,4.3078 C30.4808382,3.9418 30.5186912,3.3098 30.1644265,2.8958 C29.8082206,2.4828 29.1957794,2.4428 28.7939559,2.8078 L16.3529559,14.1228 L3.91098529,2.8078 C3.50916176,2.4428 2.89672059,2.4828 2.54051471,2.8958 C2.18625,3.3098 2.22410294,3.9418 2.62592647,4.3078 L11.8329265,12.6808 L2.62592647,21.0538 C2.22410294,21.4198 2.18625,22.0518 2.54051471,22.4658 C2.73366176,22.6898 3.00057353,22.8038 3.26845588,22.8038 C3.49751471,22.8038 3.72657353,22.7218 3.91098529,22.5538 L13.2994853,14.0158 L15.7104265,16.2068 C15.7618676,16.2548 15.8239853,16.2798 15.8822206,16.3138 C15.9191029,16.3338 15.9491912,16.3628 15.9870441,16.3778 C16.1054559,16.4278 16.22775,16.4568 16.3529559,16.4568 C16.4781618,16.4568 16.6004559,16.4278 16.7188676,16.3778 C16.7567206,16.3628 16.7868088,16.3338 16.8227206,16.3138 C16.8819265,16.2798 16.9430735,16.2548 16.9954853,16.2068 L19.4054559,14.0158 L28.7939559,22.5538 C28.9793382,22.7218 29.2083971,22.8038 29.4364853,22.8038 C29.7053382,22.8038 29.97225,22.6898 30.1644265,22.4658 C30.5186912,22.0518 30.4808382,21.4198 30.0790147,21.0538 L20.8729853,12.6808 Z" id="Fill-4" fill="#FEFEFE"></path>
                    </g>
                </g>
            </g>
        </g>
    </g>
</svg>